# MagicaVoxel @ Ephtracy

# group
o 

# material
mtllib 114-24.mtl
usemtl palette

# normals
vn -1 0 0
vn 1 0 0
vn 0 0 1
vn 0 0 -1
vn 0 -1 0
vn 0 1 0

# texcoords
vt 0.392578 0.5
vt 0.958984 0.5
vt 0.994141 0.5

# verts
v 3.1 2.7 -11.8
v 3.1 2.7 -11.9
v 3.1 3.1 -11.8
v 3.1 3.1 -11.9
v 3.2 2.5 -11.8
v 3.2 2.5 -11.9
v 3.2 2.7 -11.8
v 3.2 2.7 -11.9
v 3.2 2.8 -11.7
v 3.2 2.8 -11.8
v 3.2 3.1 -11.8
v 3.2 3.1 -11.9
v 3.2 3.2 -11.7
v 3.2 3.2 -11.8
v 3.2 3.2 -11.9
v 3.2 3.2 -12
v 3.2 3.3 -11.8
v 3.2 3.3 -12
v 3.3 2.4 -11.7
v 3.3 2.4 -11.8
v 3.3 2.5 -11.7
v 3.3 2.5 -11.8
v 3.3 2.6 -11.7
v 3.3 2.6 -11.8
v 3.3 2.8 -11.7
v 3.3 2.8 -11.8
v 3.3 3.2 -11.7
v 3.3 3.2 -11.8
v 3.3 3.3 -11.7
v 3.3 3.3 -11.8
v 3.3 3.3 -11.9
v 3.3 3.3 -12
v 3.3 3.4 -11.8
v 3.3 3.4 -11.9
v 3.3 3.4 -12
v 3.5 2.3 -11.7
v 3.5 2.3 -11.8
v 3.5 2.4 -11.7
v 3.5 2.4 -11.8
v 3.5 2.5 -11.6
v 3.5 2.5 -11.7
v 3.5 2.5 -11.8
v 3.5 2.6 -11.6
v 3.5 2.6 -11.7
v 3.5 2.6 -11.8
v 3.5 3.4 -11.8
v 3.5 3.4 -11.9
v 3.5 3.4 -12
v 3.5 3.5 -11.8
v 3.5 3.5 -11.9
v 3.5 3.5 -12
v 3.9 2.3 -11.7
v 3.9 2.3 -11.8
v 3.9 2.4 -11.7
v 3.9 2.4 -11.8
v 3.9 2.5 -11.6
v 3.9 2.5 -11.7
v 3.9 2.5 -11.8
v 3.9 2.6 -11.6
v 3.9 2.6 -11.7
v 3.9 2.6 -11.8
v 3.9 3.4 -11.8
v 3.9 3.4 -11.9
v 3.9 3.4 -12
v 3.9 3.5 -11.8
v 3.9 3.5 -11.9
v 3.9 3.5 -12
v 4.1 2.4 -11.7
v 4.1 2.4 -11.8
v 4.1 2.5 -11.7
v 4.1 2.5 -11.8
v 4.1 2.6 -11.7
v 4.1 2.6 -11.8
v 4.1 2.8 -11.7
v 4.1 2.8 -11.8
v 4.1 3.2 -11.7
v 4.1 3.2 -11.8
v 4.1 3.3 -11.7
v 4.1 3.3 -11.8
v 4.1 3.3 -11.9
v 4.1 3.3 -12
v 4.1 3.4 -11.8
v 4.1 3.4 -11.9
v 4.1 3.4 -12
v 4.2 2.5 -11.8
v 4.2 2.5 -11.9
v 4.2 2.7 -11.8
v 4.2 2.7 -11.9
v 4.2 2.8 -11.7
v 4.2 2.8 -11.8
v 4.2 3.1 -11.8
v 4.2 3.1 -11.9
v 4.2 3.2 -11.7
v 4.2 3.2 -11.8
v 4.2 3.2 -11.9
v 4.2 3.2 -12
v 4.2 3.3 -11.8
v 4.2 3.3 -12
v 4.3 2.7 -11.8
v 4.3 2.7 -11.9
v 4.3 3.1 -11.8
v 4.3 3.1 -11.9
v 3.5 2.5 -11.6
v 3.5 2.6 -11.6
v 3.9 2.5 -11.6
v 3.9 2.6 -11.6
v 3.2 2.8 -11.7
v 3.2 3.2 -11.7
v 3.3 2.4 -11.7
v 3.3 2.5 -11.7
v 3.3 2.6 -11.7
v 3.3 2.8 -11.7
v 3.3 3.2 -11.7
v 3.3 3.3 -11.7
v 3.4 3.2 -11.7
v 3.4 3.3 -11.7
v 3.5 2.3 -11.7
v 3.5 2.4 -11.7
v 3.5 2.5 -11.7
v 3.5 2.6 -11.7
v 3.5 3.1 -11.7
v 3.5 3.2 -11.7
v 3.5 3.3 -11.7
v 3.6 2.9 -11.7
v 3.6 3.1 -11.7
v 3.6 3.2 -11.7
v 3.8 2.9 -11.7
v 3.8 3.1 -11.7
v 3.8 3.2 -11.7
v 3.9 2.3 -11.7
v 3.9 2.4 -11.7
v 3.9 2.5 -11.7
v 3.9 2.6 -11.7
v 3.9 3.1 -11.7
v 3.9 3.2 -11.7
v 4.1 2.4 -11.7
v 4.1 2.5 -11.7
v 4.1 2.6 -11.7
v 4.1 2.8 -11.7
v 4.1 3.2 -11.7
v 4.1 3.3 -11.7
v 4.2 2.8 -11.7
v 4.2 3.2 -11.7
v 3.1 2.7 -11.8
v 3.1 3.1 -11.8
v 3.2 2.5 -11.8
v 3.2 2.7 -11.8
v 3.2 2.8 -11.8
v 3.2 3.1 -11.8
v 3.2 3.2 -11.8
v 3.2 3.3 -11.8
v 3.3 2.5 -11.8
v 3.3 2.6 -11.8
v 3.3 2.8 -11.8
v 3.3 3.2 -11.8
v 3.3 3.3 -11.8
v 3.3 3.4 -11.8
v 3.4 3.3 -11.8
v 3.5 2.5 -11.8
v 3.5 2.6 -11.8
v 3.5 3.3 -11.8
v 3.5 3.4 -11.8
v 3.5 3.5 -11.8
v 3.9 2.5 -11.8
v 3.9 2.6 -11.8
v 3.9 3.4 -11.8
v 3.9 3.5 -11.8
v 4.1 2.5 -11.8
v 4.1 2.6 -11.8
v 4.1 2.8 -11.8
v 4.1 3.2 -11.8
v 4.1 3.3 -11.8
v 4.1 3.4 -11.8
v 4.2 2.5 -11.8
v 4.2 2.7 -11.8
v 4.2 2.8 -11.8
v 4.2 3.1 -11.8
v 4.2 3.2 -11.8
v 4.2 3.3 -11.8
v 4.3 2.7 -11.8
v 4.3 3.1 -11.8
v 3.3 2.4 -11.8
v 3.3 2.5 -11.8
v 3.5 2.3 -11.8
v 3.5 2.4 -11.8
v 3.9 2.3 -11.8
v 3.9 2.4 -11.8
v 4.1 2.4 -11.8
v 4.1 2.5 -11.8
v 3.1 2.7 -11.9
v 3.1 3.1 -11.9
v 3.2 2.5 -11.9
v 3.2 2.7 -11.9
v 3.2 3.1 -11.9
v 3.2 3.2 -11.9
v 4.2 2.5 -11.9
v 4.2 2.7 -11.9
v 4.2 3.1 -11.9
v 4.2 3.2 -11.9
v 4.3 2.7 -11.9
v 4.3 3.1 -11.9
v 3.2 3.2 -12
v 3.2 3.3 -12
v 3.3 3.3 -12
v 3.3 3.4 -12
v 3.5 3.4 -12
v 3.5 3.5 -12
v 3.9 3.4 -12
v 3.9 3.5 -12
v 4.1 3.3 -12
v 4.1 3.4 -12
v 4.2 3.2 -12
v 4.2 3.3 -12
v 3.5 2.3 -11.7
v 3.9 2.3 -11.7
v 3.5 2.3 -11.8
v 3.9 2.3 -11.8
v 3.3 2.4 -11.7
v 3.5 2.4 -11.7
v 3.9 2.4 -11.7
v 4.1 2.4 -11.7
v 3.3 2.4 -11.8
v 3.5 2.4 -11.8
v 3.9 2.4 -11.8
v 4.1 2.4 -11.8
v 3.5 2.5 -11.6
v 3.9 2.5 -11.6
v 3.5 2.5 -11.7
v 3.9 2.5 -11.7
v 3.2 2.5 -11.8
v 3.3 2.5 -11.8
v 4.1 2.5 -11.8
v 4.2 2.5 -11.8
v 3.2 2.5 -11.9
v 4.2 2.5 -11.9
v 3.3 2.6 -11.7
v 3.5 2.6 -11.7
v 3.9 2.6 -11.7
v 4.1 2.6 -11.7
v 3.3 2.6 -11.8
v 3.5 2.6 -11.8
v 3.9 2.6 -11.8
v 4.1 2.6 -11.8
v 3.1 2.7 -11.8
v 3.2 2.7 -11.8
v 4.2 2.7 -11.8
v 4.3 2.7 -11.8
v 3.1 2.7 -11.9
v 3.2 2.7 -11.9
v 4.2 2.7 -11.9
v 4.3 2.7 -11.9
v 3.2 2.8 -11.7
v 3.3 2.8 -11.7
v 4.1 2.8 -11.7
v 4.2 2.8 -11.7
v 3.2 2.8 -11.8
v 3.3 2.8 -11.8
v 4.1 2.8 -11.8
v 4.2 2.8 -11.8
v 3.2 3.2 -11.9
v 4.2 3.2 -11.9
v 3.2 3.2 -12
v 4.2 3.2 -12
v 3.3 2.5 -11.7
v 3.5 2.5 -11.7
v 3.9 2.5 -11.7
v 4.1 2.5 -11.7
v 3.3 2.5 -11.8
v 3.5 2.5 -11.8
v 3.9 2.5 -11.8
v 4.1 2.5 -11.8
v 3.5 2.6 -11.6
v 3.9 2.6 -11.6
v 3.5 2.6 -11.7
v 3.9 2.6 -11.7
v 3.1 3.1 -11.8
v 3.2 3.1 -11.8
v 4.2 3.1 -11.8
v 4.3 3.1 -11.8
v 3.1 3.1 -11.9
v 3.2 3.1 -11.9
v 4.2 3.1 -11.9
v 4.3 3.1 -11.9
v 3.2 3.2 -11.7
v 3.3 3.2 -11.7
v 4.1 3.2 -11.7
v 4.2 3.2 -11.7
v 3.2 3.2 -11.8
v 3.3 3.2 -11.8
v 4.1 3.2 -11.8
v 4.2 3.2 -11.8
v 3.3 3.3 -11.7
v 3.4 3.3 -11.7
v 3.5 3.3 -11.7
v 4.1 3.3 -11.7
v 3.2 3.3 -11.8
v 3.3 3.3 -11.8
v 3.4 3.3 -11.8
v 3.5 3.3 -11.8
v 4.1 3.3 -11.8
v 4.2 3.3 -11.8
v 3.3 3.3 -11.9
v 4.1 3.3 -11.9
v 3.2 3.3 -12
v 3.3 3.3 -12
v 4.1 3.3 -12
v 4.2 3.3 -12
v 3.3 3.4 -11.8
v 3.5 3.4 -11.8
v 3.9 3.4 -11.8
v 4.1 3.4 -11.8
v 3.3 3.4 -11.9
v 3.5 3.4 -11.9
v 3.9 3.4 -11.9
v 4.1 3.4 -11.9
v 3.3 3.4 -12
v 3.5 3.4 -12
v 3.9 3.4 -12
v 4.1 3.4 -12
v 3.5 3.5 -11.8
v 3.9 3.5 -11.8
v 3.5 3.5 -11.9
v 3.9 3.5 -11.9
v 3.5 3.5 -12
v 3.9 3.5 -12

# faces
f 3/1/1 2/1/1 1/1/1
f 4/1/1 2/1/1 3/1/1
f 7/1/1 6/1/1 5/1/1
f 8/1/1 6/1/1 7/1/1
f 11/2/1 10/2/1 9/2/1
f 13/2/1 11/2/1 9/2/1
f 14/1/1 12/1/1 11/1/1
f 14/2/1 11/2/1 13/2/1
f 15/1/1 12/1/1 14/1/1
f 17/1/1 15/1/1 14/1/1
f 17/1/1 16/1/1 15/1/1
f 18/1/1 16/1/1 17/1/1
f 21/1/1 20/1/1 19/1/1
f 22/1/1 20/1/1 21/1/1
f 25/2/1 24/2/1 23/2/1
f 26/2/1 24/2/1 25/2/1
f 29/2/1 28/2/1 27/2/1
f 30/2/1 28/2/1 29/2/1
f 33/2/1 31/2/1 30/2/1
f 34/1/1 32/1/1 31/1/1
f 34/2/1 31/2/1 33/2/1
f 35/1/1 32/1/1 34/1/1
f 38/1/1 37/1/1 36/1/1
f 39/1/1 37/1/1 38/1/1
f 43/2/1 41/2/1 40/2/1
f 43/2/1 42/2/1 41/2/1
f 44/2/1 42/2/1 43/2/1
f 45/2/1 42/2/1 44/2/1
f 49/2/1 47/2/1 46/2/1
f 50/1/1 48/1/1 47/1/1
f 50/2/1 47/2/1 49/2/1
f 51/1/1 48/1/1 50/1/1
f 52/1/2 53/1/2 54/1/2
f 54/1/2 53/1/2 55/1/2
f 56/2/2 57/2/2 59/2/2
f 57/2/2 58/2/2 59/2/2
f 59/2/2 58/2/2 60/2/2
f 60/2/2 58/2/2 61/2/2
f 62/2/2 63/2/2 65/2/2
f 63/1/2 64/1/2 66/1/2
f 65/2/2 63/2/2 66/2/2
f 66/1/2 64/1/2 67/1/2
f 68/1/2 69/1/2 70/1/2
f 70/1/2 69/1/2 71/1/2
f 72/2/2 73/2/2 74/2/2
f 74/2/2 73/2/2 75/2/2
f 76/2/2 77/2/2 78/2/2
f 78/2/2 77/2/2 79/2/2
f 79/2/2 80/2/2 82/2/2
f 80/1/2 81/1/2 83/1/2
f 82/2/2 80/2/2 83/2/2
f 83/1/2 81/1/2 84/1/2
f 85/1/2 86/1/2 87/1/2
f 87/1/2 86/1/2 88/1/2
f 89/2/2 90/2/2 91/2/2
f 89/2/2 91/2/2 93/2/2
f 91/1/2 92/1/2 94/1/2
f 93/2/2 91/2/2 94/2/2
f 94/1/2 92/1/2 95/1/2
f 94/1/2 95/1/2 97/1/2
f 95/1/2 96/1/2 97/1/2
f 97/1/2 96/1/2 98/1/2
f 99/1/2 100/1/2 101/1/2
f 101/1/2 100/1/2 102/1/2
f 105/2/3 104/2/3 103/2/3
f 106/2/3 104/2/3 105/2/3
f 112/2/3 108/2/3 107/2/3
f 113/2/3 108/2/3 112/2/3
f 115/2/3 112/2/3 111/2/3
f 115/2/3 114/2/3 113/2/3
f 115/2/3 113/2/3 112/2/3
f 116/2/3 114/2/3 115/2/3
f 118/1/3 110/1/3 109/1/3
f 119/1/3 110/1/3 118/1/3
f 120/2/3 115/2/3 111/2/3
f 121/2/3 115/2/3 120/2/3
f 122/3/3 116/3/3 115/3/3
f 122/2/3 115/2/3 121/2/3
f 123/3/3 116/3/3 122/3/3
f 124/2/3 121/2/3 120/2/3
f 125/3/3 122/3/3 121/3/3
f 125/2/3 121/2/3 124/2/3
f 126/2/3 123/2/3 122/2/3
f 126/3/3 122/3/3 125/3/3
f 127/2/3 124/2/3 120/2/3
f 127/3/3 125/3/3 124/3/3
f 128/2/3 126/2/3 125/2/3
f 128/3/3 125/3/3 127/3/3
f 129/2/3 123/2/3 126/2/3
f 129/2/3 126/2/3 128/2/3
f 130/1/3 119/1/3 118/1/3
f 130/1/3 118/1/3 117/1/3
f 131/1/3 119/1/3 130/1/3
f 132/1/3 119/1/3 131/1/3
f 133/2/3 128/2/3 127/2/3
f 133/2/3 127/2/3 120/2/3
f 134/3/3 129/3/3 128/3/3
f 134/2/3 128/2/3 133/2/3
f 135/2/3 123/2/3 129/2/3
f 135/3/3 129/3/3 134/3/3
f 136/1/3 132/1/3 131/1/3
f 137/1/3 132/1/3 136/1/3
f 138/2/3 134/2/3 133/2/3
f 138/2/3 135/2/3 134/2/3
f 139/2/3 135/2/3 138/2/3
f 140/2/3 123/2/3 135/2/3
f 140/2/3 135/2/3 139/2/3
f 141/2/3 123/2/3 140/2/3
f 142/2/3 140/2/3 139/2/3
f 143/2/3 140/2/3 142/2/3
f 147/1/3 145/1/3 144/1/3
f 148/1/3 145/1/3 147/1/3
f 149/1/3 145/1/3 148/1/3
f 152/1/3 147/1/3 146/1/3
f 152/1/3 148/1/3 147/1/3
f 153/1/3 148/1/3 152/1/3
f 154/1/3 148/1/3 153/1/3
f 155/1/3 151/1/3 150/1/3
f 156/1/3 151/1/3 155/1/3
f 158/2/3 157/2/3 156/2/3
f 159/1/3 153/1/3 152/1/3
f 160/1/3 153/1/3 159/1/3
f 161/2/3 157/2/3 158/2/3
f 162/2/3 157/2/3 161/2/3
f 166/2/3 163/2/3 162/2/3
f 166/2/3 162/2/3 161/2/3
f 167/2/3 163/2/3 166/2/3
f 168/1/3 165/1/3 164/1/3
f 169/1/3 165/1/3 168/1/3
f 172/2/3 166/2/3 161/2/3
f 173/2/3 166/2/3 172/2/3
f 174/1/3 170/1/3 169/1/3
f 174/1/3 169/1/3 168/1/3
f 175/1/3 170/1/3 174/1/3
f 176/1/3 170/1/3 175/1/3
f 178/1/3 172/1/3 171/1/3
f 179/1/3 172/1/3 178/1/3
f 180/1/3 177/1/3 176/1/3
f 180/1/3 176/1/3 175/1/3
f 181/1/3 177/1/3 180/1/3
f 182/1/4 183/1/4 185/1/4
f 184/1/4 185/1/4 186/1/4
f 185/1/4 183/1/4 187/1/4
f 186/1/4 185/1/4 187/1/4
f 187/1/4 183/1/4 188/1/4
f 188/1/4 183/1/4 189/1/4
f 190/1/4 191/1/4 193/1/4
f 193/1/4 191/1/4 194/1/4
f 192/1/4 193/1/4 196/1/4
f 194/1/4 195/1/4 196/1/4
f 193/1/4 194/1/4 196/1/4
f 196/1/4 195/1/4 197/1/4
f 197/1/4 195/1/4 198/1/4
f 198/1/4 195/1/4 199/1/4
f 197/1/4 198/1/4 200/1/4
f 200/1/4 198/1/4 201/1/4
f 202/1/4 203/1/4 204/1/4
f 204/1/4 205/1/4 206/1/4
f 204/1/4 206/1/4 208/1/4
f 206/1/4 207/1/4 208/1/4
f 208/1/4 207/1/4 209/1/4
f 202/1/4 204/1/4 210/1/4
f 204/1/4 208/1/4 210/1/4
f 210/1/4 208/1/4 211/1/4
f 202/1/4 210/1/4 212/1/4
f 212/1/4 210/1/4 213/1/4
f 216/1/5 215/1/5 214/1/5
f 217/1/5 215/1/5 216/1/5
f 222/1/5 219/1/5 218/1/5
f 223/1/5 219/1/5 222/1/5
f 224/1/5 221/1/5 220/1/5
f 225/1/5 221/1/5 224/1/5
f 228/2/5 227/2/5 226/2/5
f 229/2/5 227/2/5 228/2/5
f 234/1/5 231/1/5 230/1/5
f 234/1/5 233/1/5 232/1/5
f 234/1/5 232/1/5 231/1/5
f 235/1/5 233/1/5 234/1/5
f 240/2/5 237/2/5 236/2/5
f 241/2/5 237/2/5 240/2/5
f 242/2/5 239/2/5 238/2/5
f 243/2/5 239/2/5 242/2/5
f 248/1/5 245/1/5 244/1/5
f 249/1/5 245/1/5 248/1/5
f 250/1/5 247/1/5 246/1/5
f 251/1/5 247/1/5 250/1/5
f 256/2/5 253/2/5 252/2/5
f 257/2/5 253/2/5 256/2/5
f 258/2/5 255/2/5 254/2/5
f 259/2/5 255/2/5 258/2/5
f 262/1/5 261/1/5 260/1/5
f 263/1/5 261/1/5 262/1/5
f 264/1/6 265/1/6 268/1/6
f 268/1/6 265/1/6 269/1/6
f 266/1/6 267/1/6 270/1/6
f 270/1/6 267/1/6 271/1/6
f 272/2/6 273/2/6 274/2/6
f 274/2/6 273/2/6 275/2/6
f 276/1/6 277/1/6 280/1/6
f 280/1/6 277/1/6 281/1/6
f 278/1/6 279/1/6 282/1/6
f 282/1/6 279/1/6 283/1/6
f 284/2/6 285/2/6 288/2/6
f 288/2/6 285/2/6 289/2/6
f 286/2/6 287/2/6 290/2/6
f 290/2/6 287/2/6 291/2/6
f 292/2/6 293/2/6 297/2/6
f 293/3/6 294/3/6 298/3/6
f 297/2/6 293/2/6 298/2/6
f 294/2/6 295/2/6 299/2/6
f 298/3/6 294/3/6 299/3/6
f 299/2/6 295/2/6 300/2/6
f 296/1/6 297/1/6 302/1/6
f 300/1/6 301/1/6 303/1/6
f 296/1/6 302/1/6 304/1/6
f 304/1/6 302/1/6 305/1/6
f 303/1/6 301/1/6 306/1/6
f 306/1/6 301/1/6 307/1/6
f 308/2/6 309/2/6 312/2/6
f 312/2/6 309/2/6 313/2/6
f 310/2/6 311/2/6 314/2/6
f 314/2/6 311/2/6 315/2/6
f 312/1/6 313/1/6 316/1/6
f 316/1/6 313/1/6 317/1/6
f 314/1/6 315/1/6 318/1/6
f 318/1/6 315/1/6 319/1/6
f 320/2/6 321/2/6 322/2/6
f 322/2/6 321/2/6 323/2/6
f 322/1/6 323/1/6 324/1/6
f 324/1/6 323/1/6 325/1/6
