# MagicaVoxel @ Ephtracy

# group
o 

# material
mtllib 114-23.mtl
usemtl palette

# normals
vn -1 0 0
vn 1 0 0
vn 0 0 1
vn 0 0 -1
vn 0 -1 0
vn 0 1 0

# texcoords
vt 0.369141 0.5
vt 0.373047 0.5
vt 0.978516 0.5
vt 0.982422 0.5

# verts
v -7.7 0.2 -6.9
v -7.7 0.2 -8.9
v -7.7 0.3 -6.9
v -7.7 0.3 -8.8
v -7.7 0.4 -8.8
v -7.7 0.4 -8.9
v -7.7 0.5 -8.7
v -7.7 0.5 -8.8
v -7.7 0.6 -8.6
v -7.7 0.6 -8.7
v -7.7 0.6 -8.8
v -7.7 0.7 -8.5
v -7.7 0.7 -8.6
v -7.7 0.7 -8.7
v -7.7 0.8 -8.4
v -7.7 0.8 -8.5
v -7.7 0.8 -8.6
v -7.7 1.5 -7.5
v -7.7 1.5 -8.1
v -7.7 1.6 -7.4
v -7.7 1.6 -7.5
v -7.7 1.6 -7.8
v -7.7 1.6 -8
v -7.7 1.6 -8.1
v -7.7 1.6 -8.4
v -7.7 1.8 -7.4
v -7.7 1.8 -7.5
v -7.7 1.8 -7.8
v -7.7 1.8 -8
v -7.7 1.8 -8.1
v -7.7 1.8 -8.5
v -7.7 1.8 -8.6
v -7.7 1.9 -7.5
v -7.7 1.9 -8.1
v -7.7 1.9 -8.5
v -7.7 1.9 -8.6
v -7.7 1.9 -8.7
v -7.7 2 -7
v -7.7 2 -8.6
v -7.7 2 -8.7
v -7.7 2 -8.9
v -7.7 2.1 -7
v -7.7 2.1 -8.9
v -7.7 2.2 -7
v -7.7 2.2 -8.9
v -7.6 1.6 -7.8
v -7.6 1.6 -8
v -7.6 1.8 -7.8
v -7.6 1.8 -8
v -7.5 0.2 -8.7
v -7.5 0.2 -8.8
v -7.5 0.3 -8.7
v -7.5 0.3 -8.8
v -7.4 1.5 -7.5
v -7.4 1.5 -8.4
v -7.4 1.6 -7.8
v -7.4 1.6 -8
v -7.4 1.8 -7.8
v -7.4 1.8 -8
v -7.4 2 -7.5
v -7.4 2 -8.4
v -7.3 1.4 -7.5
v -7.3 1.4 -8.4
v -7.3 1.5 -7.5
v -7.3 1.5 -8.4
v -7.3 1.5 -8.5
v -7.3 2 -8.4
v -7.3 2 -8.5
v -1.1 1.5 -7.5
v -1.1 1.5 -8.4
v -1.1 2 -7.5
v -1.1 2 -8.4
v -0.8 0.2 -6.9
v -0.8 0.2 -8.8
v -0.8 0.3 -6.9
v -0.8 0.3 -8.8
v -0.8 0.3 -8.9
v -0.8 0.4 -8.8
v -0.8 0.4 -8.9
v -0.8 0.5 -8.7
v -0.8 0.5 -8.8
v -0.8 0.6 -8.6
v -0.8 0.6 -8.7
v -0.8 0.6 -8.8
v -0.8 0.7 -8.5
v -0.8 0.7 -8.6
v -0.8 0.7 -8.7
v -0.8 0.8 -8.4
v -0.8 0.8 -8.5
v -0.8 0.8 -8.6
v -0.8 1.5 -7.5
v -0.8 1.5 -8.1
v -0.8 1.6 -7.4
v -0.8 1.6 -7.5
v -0.8 1.6 -7.8
v -0.8 1.6 -8
v -0.8 1.6 -8.1
v -0.8 1.6 -8.4
v -0.8 1.8 -7.4
v -0.8 1.8 -7.5
v -0.8 1.8 -7.8
v -0.8 1.8 -8
v -0.8 1.8 -8.1
v -0.8 1.8 -8.5
v -0.8 1.8 -8.6
v -0.8 1.9 -7.5
v -0.8 1.9 -8.1
v -0.8 1.9 -8.5
v -0.8 1.9 -8.6
v -0.8 2.1 -7
v -0.8 2.1 -8.8
v -0.8 2.2 -7
v -0.8 2.2 -8.8
v -7.6 0.2 -6.9
v -7.6 0.2 -8.8
v -7.6 0.3 -6.9
v -7.6 0.3 -8.8
v -7.6 0.3 -8.9
v -7.6 0.4 -8.8
v -7.6 0.4 -8.9
v -7.6 0.5 -8.7
v -7.6 0.5 -8.8
v -7.6 0.6 -8.6
v -7.6 0.6 -8.7
v -7.6 0.6 -8.8
v -7.6 0.7 -8.5
v -7.6 0.7 -8.6
v -7.6 0.7 -8.7
v -7.6 0.8 -8.4
v -7.6 0.8 -8.5
v -7.6 0.8 -8.6
v -7.6 1.5 -7.5
v -7.6 1.5 -8.1
v -7.6 1.6 -7.4
v -7.6 1.6 -7.5
v -7.6 1.6 -7.8
v -7.6 1.6 -8
v -7.6 1.6 -8.1
v -7.6 1.6 -8.4
v -7.6 1.8 -7.4
v -7.6 1.8 -7.5
v -7.6 1.8 -7.8
v -7.6 1.8 -8
v -7.6 1.8 -8.1
v -7.6 1.8 -8.5
v -7.6 1.8 -8.6
v -7.6 1.9 -7.5
v -7.6 1.9 -8.1
v -7.6 1.9 -8.5
v -7.6 1.9 -8.6
v -7.6 2.1 -7
v -7.6 2.1 -8.8
v -7.6 2.2 -7
v -7.6 2.2 -8.8
v -7.3 1.5 -7.5
v -7.3 1.5 -8.4
v -7.3 2 -7.5
v -7.3 2 -8.4
v -1.1 1.4 -7.5
v -1.1 1.4 -8.4
v -1.1 1.5 -7.5
v -1.1 1.5 -8.4
v -1.1 1.5 -8.5
v -1.1 2 -8.4
v -1.1 2 -8.5
v -1 1.5 -7.5
v -1 1.5 -8.4
v -1 1.6 -7.8
v -1 1.6 -8
v -1 1.8 -7.8
v -1 1.8 -8
v -1 2 -7.5
v -1 2 -8.4
v -0.9 0.2 -8.7
v -0.9 0.2 -8.8
v -0.9 0.3 -8.7
v -0.9 0.3 -8.8
v -0.8 1.6 -7.8
v -0.8 1.6 -8
v -0.8 1.8 -7.8
v -0.8 1.8 -8
v -0.7 0.2 -6.9
v -0.7 0.2 -8.9
v -0.7 0.3 -6.9
v -0.7 0.3 -8.8
v -0.7 0.4 -8.8
v -0.7 0.4 -8.9
v -0.7 0.5 -8.7
v -0.7 0.5 -8.8
v -0.7 0.6 -8.6
v -0.7 0.6 -8.7
v -0.7 0.6 -8.8
v -0.7 0.7 -8.5
v -0.7 0.7 -8.6
v -0.7 0.7 -8.7
v -0.7 0.8 -8.4
v -0.7 0.8 -8.5
v -0.7 0.8 -8.6
v -0.7 1.5 -7.5
v -0.7 1.5 -8.1
v -0.7 1.6 -7.4
v -0.7 1.6 -7.5
v -0.7 1.6 -7.8
v -0.7 1.6 -8
v -0.7 1.6 -8.1
v -0.7 1.6 -8.4
v -0.7 1.8 -7.4
v -0.7 1.8 -7.5
v -0.7 1.8 -7.8
v -0.7 1.8 -8
v -0.7 1.8 -8.1
v -0.7 1.8 -8.5
v -0.7 1.8 -8.6
v -0.7 1.9 -7.5
v -0.7 1.9 -8.1
v -0.7 1.9 -8.5
v -0.7 1.9 -8.6
v -0.7 1.9 -8.7
v -0.7 2 -7
v -0.7 2 -8.6
v -0.7 2 -8.7
v -0.7 2 -8.9
v -0.7 2.1 -7
v -0.7 2.1 -8.9
v -0.7 2.2 -7
v -0.7 2.2 -8.9
v -7.7 0.2 -6.9
v -7.7 0.3 -6.9
v -7.6 0.2 -6.9
v -7.6 0.3 -6.9
v -0.8 0.2 -6.9
v -0.8 0.3 -6.9
v -0.7 0.2 -6.9
v -0.7 0.3 -6.9
v -7.7 2 -7
v -7.7 2.1 -7
v -7.7 2.2 -7
v -7.6 2.1 -7
v -7.6 2.2 -7
v -0.8 2.1 -7
v -0.8 2.2 -7
v -0.7 2 -7
v -0.7 2.1 -7
v -0.7 2.2 -7
v -7.7 1.6 -7.4
v -7.7 1.8 -7.4
v -7.6 1.6 -7.4
v -7.6 1.8 -7.4
v -0.8 1.6 -7.4
v -0.8 1.8 -7.4
v -0.7 1.6 -7.4
v -0.7 1.8 -7.4
v -7.7 1.5 -7.5
v -7.7 1.6 -7.5
v -7.7 1.8 -7.5
v -7.7 1.9 -7.5
v -7.6 1.5 -7.5
v -7.6 1.6 -7.5
v -7.6 1.8 -7.5
v -7.6 1.9 -7.5
v -7.4 1.5 -7.5
v -7.4 2 -7.5
v -7.3 1.4 -7.5
v -7.3 1.5 -7.5
v -7.3 2 -7.5
v -1.1 1.4 -7.5
v -1.1 1.5 -7.5
v -1.1 2 -7.5
v -1 1.5 -7.5
v -1 2 -7.5
v -0.8 1.5 -7.5
v -0.8 1.6 -7.5
v -0.8 1.8 -7.5
v -0.8 1.9 -7.5
v -0.7 1.5 -7.5
v -0.7 1.6 -7.5
v -0.7 1.8 -7.5
v -0.7 1.9 -7.5
v -7.6 1.6 -7.8
v -7.6 1.8 -7.8
v -7.4 1.6 -7.8
v -7.4 1.8 -7.8
v -1 1.6 -7.8
v -1 1.8 -7.8
v -0.8 1.6 -7.8
v -0.8 1.8 -7.8
v -7.7 1.6 -8
v -7.7 1.8 -8
v -7.6 1.6 -8
v -7.6 1.8 -8
v -0.8 1.6 -8
v -0.8 1.8 -8
v -0.7 1.6 -8
v -0.7 1.8 -8
v -7.7 0.8 -8.4
v -7.7 1.6 -8.4
v -7.6 0.8 -8.4
v -7.6 1.6 -8.4
v -7.3 1.5 -8.4
v -7.3 2 -8.4
v -1.1 1.5 -8.4
v -1.1 2 -8.4
v -0.8 0.8 -8.4
v -0.8 1.6 -8.4
v -0.7 0.8 -8.4
v -0.7 1.6 -8.4
v -7.7 0.7 -8.5
v -7.7 0.8 -8.5
v -7.7 1.8 -8.5
v -7.7 1.9 -8.5
v -7.6 0.7 -8.5
v -7.6 0.8 -8.5
v -7.6 1.8 -8.5
v -7.6 1.9 -8.5
v -0.8 0.7 -8.5
v -0.8 0.8 -8.5
v -0.8 1.8 -8.5
v -0.8 1.9 -8.5
v -0.7 0.7 -8.5
v -0.7 0.8 -8.5
v -0.7 1.8 -8.5
v -0.7 1.9 -8.5
v -7.7 0.6 -8.6
v -7.7 0.7 -8.6
v -7.7 1.9 -8.6
v -7.7 2 -8.6
v -7.6 0.6 -8.6
v -7.6 0.7 -8.6
v -7.6 1.9 -8.6
v -0.8 0.6 -8.6
v -0.8 0.7 -8.6
v -0.8 1.9 -8.6
v -0.7 0.6 -8.6
v -0.7 0.7 -8.6
v -0.7 1.9 -8.6
v -0.7 2 -8.6
v -7.7 0.5 -8.7
v -7.7 0.6 -8.7
v -7.6 0.5 -8.7
v -7.6 0.6 -8.7
v -7.5 0.2 -8.7
v -7.5 0.3 -8.7
v -0.9 0.2 -8.7
v -0.9 0.3 -8.7
v -0.8 0.5 -8.7
v -0.8 0.6 -8.7
v -0.7 0.5 -8.7
v -0.7 0.6 -8.7
v -7.7 0.3 -8.8
v -7.7 0.4 -8.8
v -7.6 0.2 -8.8
v -7.6 0.3 -8.8
v -7.6 0.4 -8.8
v -7.6 2.1 -8.8
v -7.6 2.2 -8.8
v -7.5 0.2 -8.8
v -7.5 0.3 -8.8
v -0.9 0.2 -8.8
v -0.9 0.3 -8.8
v -0.8 0.2 -8.8
v -0.8 0.3 -8.8
v -0.8 0.4 -8.8
v -0.8 2.1 -8.8
v -0.8 2.2 -8.8
v -0.7 0.3 -8.8
v -0.7 0.4 -8.8
v -7.7 1.6 -7.8
v -7.7 1.8 -7.8
v -7.6 1.6 -7.8
v -7.6 1.8 -7.8
v -0.8 1.6 -7.8
v -0.8 1.8 -7.8
v -0.7 1.6 -7.8
v -0.7 1.8 -7.8
v -7.6 1.6 -8
v -7.6 1.8 -8
v -7.4 1.6 -8
v -7.4 1.8 -8
v -1 1.6 -8
v -1 1.8 -8
v -0.8 1.6 -8
v -0.8 1.8 -8
v -7.7 1.5 -8.1
v -7.7 1.6 -8.1
v -7.7 1.8 -8.1
v -7.7 1.9 -8.1
v -7.6 1.5 -8.1
v -7.6 1.6 -8.1
v -7.6 1.8 -8.1
v -7.6 1.9 -8.1
v -0.8 1.5 -8.1
v -0.8 1.6 -8.1
v -0.8 1.8 -8.1
v -0.8 1.9 -8.1
v -0.7 1.5 -8.1
v -0.7 1.6 -8.1
v -0.7 1.8 -8.1
v -0.7 1.9 -8.1
v -7.4 1.5 -8.4
v -7.4 2 -8.4
v -7.3 1.4 -8.4
v -7.3 1.5 -8.4
v -7.3 2 -8.4
v -1.1 1.4 -8.4
v -1.1 1.5 -8.4
v -1.1 2 -8.4
v -1 1.5 -8.4
v -1 2 -8.4
v -7.7 0.8 -8.5
v -7.7 1.8 -8.5
v -7.6 0.8 -8.5
v -7.6 1.8 -8.5
v -7.3 1.5 -8.5
v -7.3 2 -8.5
v -1.1 1.5 -8.5
v -1.1 2 -8.5
v -0.8 0.8 -8.5
v -0.8 1.8 -8.5
v -0.7 0.8 -8.5
v -0.7 1.8 -8.5
v -7.7 0.7 -8.6
v -7.7 0.8 -8.6
v -7.7 1.8 -8.6
v -7.7 1.9 -8.6
v -7.6 0.7 -8.6
v -7.6 0.8 -8.6
v -7.6 1.8 -8.6
v -7.6 1.9 -8.6
v -0.8 0.7 -8.6
v -0.8 0.8 -8.6
v -0.8 1.8 -8.6
v -0.8 1.9 -8.6
v -0.7 0.7 -8.6
v -0.7 0.8 -8.6
v -0.7 1.8 -8.6
v -0.7 1.9 -8.6
v -7.7 0.6 -8.7
v -7.7 0.7 -8.7
v -7.7 1.9 -8.7
v -7.7 2 -8.7
v -7.6 0.6 -8.7
v -7.6 0.7 -8.7
v -0.8 0.6 -8.7
v -0.8 0.7 -8.7
v -0.7 0.6 -8.7
v -0.7 0.7 -8.7
v -0.7 1.9 -8.7
v -0.7 2 -8.7
v -7.7 0.5 -8.8
v -7.7 0.6 -8.8
v -7.6 0.5 -8.8
v -7.6 0.6 -8.8
v -0.8 0.5 -8.8
v -0.8 0.6 -8.8
v -0.7 0.5 -8.8
v -0.7 0.6 -8.8
v -7.7 0.2 -8.9
v -7.7 0.4 -8.9
v -7.7 2 -8.9
v -7.7 2.1 -8.9
v -7.7 2.2 -8.9
v -7.6 0.3 -8.9
v -7.6 0.4 -8.9
v -0.8 0.3 -8.9
v -0.8 0.4 -8.9
v -0.7 0.2 -8.9
v -0.7 0.4 -8.9
v -0.7 2 -8.9
v -0.7 2.1 -8.9
v -0.7 2.2 -8.9
v -7.7 0.2 -6.9
v -7.6 0.2 -6.9
v -0.8 0.2 -6.9
v -0.7 0.2 -6.9
v -7.5 0.2 -8.7
v -0.9 0.2 -8.7
v -7.6 0.2 -8.8
v -7.5 0.2 -8.8
v -0.9 0.2 -8.8
v -0.8 0.2 -8.8
v -7.7 0.2 -8.9
v -0.7 0.2 -8.9
v -7.7 0.5 -8.7
v -7.6 0.5 -8.7
v -0.8 0.5 -8.7
v -0.7 0.5 -8.7
v -7.7 0.5 -8.8
v -7.6 0.5 -8.8
v -0.8 0.5 -8.8
v -0.7 0.5 -8.8
v -7.7 0.6 -8.6
v -7.6 0.6 -8.6
v -0.8 0.6 -8.6
v -0.7 0.6 -8.6
v -7.7 0.6 -8.7
v -7.6 0.6 -8.7
v -0.8 0.6 -8.7
v -0.7 0.6 -8.7
v -7.7 0.7 -8.5
v -7.6 0.7 -8.5
v -0.8 0.7 -8.5
v -0.7 0.7 -8.5
v -7.7 0.7 -8.6
v -7.6 0.7 -8.6
v -0.8 0.7 -8.6
v -0.7 0.7 -8.6
v -7.7 0.8 -8.4
v -7.6 0.8 -8.4
v -0.8 0.8 -8.4
v -0.7 0.8 -8.4
v -7.7 0.8 -8.5
v -7.6 0.8 -8.5
v -0.8 0.8 -8.5
v -0.7 0.8 -8.5
v -7.3 1.4 -7.5
v -1.1 1.4 -7.5
v -7.3 1.4 -8.4
v -1.1 1.4 -8.4
v -7.7 1.5 -7.5
v -7.6 1.5 -7.5
v -7.4 1.5 -7.5
v -7.3 1.5 -7.5
v -1.1 1.5 -7.5
v -1 1.5 -7.5
v -0.8 1.5 -7.5
v -0.7 1.5 -7.5
v -7.7 1.5 -8.1
v -7.6 1.5 -8.1
v -0.8 1.5 -8.1
v -0.7 1.5 -8.1
v -7.4 1.5 -8.4
v -7.3 1.5 -8.4
v -1.1 1.5 -8.4
v -1 1.5 -8.4
v -7.3 1.5 -8.5
v -1.1 1.5 -8.5
v -7.7 1.6 -7.4
v -7.6 1.6 -7.4
v -0.8 1.6 -7.4
v -0.7 1.6 -7.4
v -7.7 1.6 -7.5
v -7.6 1.6 -7.5
v -0.8 1.6 -7.5
v -0.7 1.6 -7.5
v -7.6 1.6 -7.8
v -7.4 1.6 -7.8
v -1 1.6 -7.8
v -0.8 1.6 -7.8
v -7.6 1.6 -8
v -7.4 1.6 -8
v -1 1.6 -8
v -0.8 1.6 -8
v -7.7 1.6 -8.1
v -7.6 1.6 -8.1
v -0.8 1.6 -8.1
v -0.7 1.6 -8.1
v -7.7 1.6 -8.4
v -7.6 1.6 -8.4
v -0.8 1.6 -8.4
v -0.7 1.6 -8.4
v -7.7 1.8 -7.8
v -7.6 1.8 -7.8
v -0.8 1.8 -7.8
v -0.7 1.8 -7.8
v -7.7 1.8 -8
v -7.6 1.8 -8
v -0.8 1.8 -8
v -0.7 1.8 -8
v -7.7 1.8 -8.5
v -7.6 1.8 -8.5
v -0.8 1.8 -8.5
v -0.7 1.8 -8.5
v -7.7 1.8 -8.6
v -7.6 1.8 -8.6
v -0.8 1.8 -8.6
v -0.7 1.8 -8.6
v -7.7 1.9 -8.6
v -7.6 1.9 -8.6
v -0.8 1.9 -8.6
v -0.7 1.9 -8.6
v -7.7 1.9 -8.7
v -0.7 1.9 -8.7
v -7.7 2 -7
v -0.7 2 -7
v -7.4 2 -7.5
v -7.3 2 -7.5
v -1.1 2 -7.5
v -1 2 -7.5
v -7.4 2 -8.4
v -7.3 2 -8.4
v -1.1 2 -8.4
v -1 2 -8.4
v -7.3 2 -8.5
v -1.1 2 -8.5
v -7.7 2 -8.6
v -0.7 2 -8.6
v -7.7 2 -8.7
v -0.7 2 -8.7
v -7.7 2 -8.9
v -0.7 2 -8.9
v -7.7 0.3 -6.9
v -7.6 0.3 -6.9
v -0.8 0.3 -6.9
v -0.7 0.3 -6.9
v -7.5 0.3 -8.7
v -0.9 0.3 -8.7
v -7.7 0.3 -8.8
v -7.6 0.3 -8.8
v -7.5 0.3 -8.8
v -0.9 0.3 -8.8
v -0.8 0.3 -8.8
v -0.7 0.3 -8.8
v -7.6 0.3 -8.9
v -0.8 0.3 -8.9
v -7.7 0.4 -8.8
v -7.6 0.4 -8.8
v -0.8 0.4 -8.8
v -0.7 0.4 -8.8
v -7.7 0.4 -8.9
v -7.6 0.4 -8.9
v -0.8 0.4 -8.9
v -0.7 0.4 -8.9
v -7.7 0.6 -8.7
v -7.6 0.6 -8.7
v -0.8 0.6 -8.7
v -0.7 0.6 -8.7
v -7.7 0.6 -8.8
v -7.6 0.6 -8.8
v -0.8 0.6 -8.8
v -0.7 0.6 -8.8
v -7.7 0.7 -8.6
v -7.6 0.7 -8.6
v -0.8 0.7 -8.6
v -0.7 0.7 -8.6
v -7.7 0.7 -8.7
v -7.6 0.7 -8.7
v -0.8 0.7 -8.7
v -0.7 0.7 -8.7
v -7.7 0.8 -8.5
v -7.6 0.8 -8.5
v -0.8 0.8 -8.5
v -0.7 0.8 -8.5
v -7.7 0.8 -8.6
v -7.6 0.8 -8.6
v -0.8 0.8 -8.6
v -0.7 0.8 -8.6
v -7.3 1.5 -7.5
v -1.1 1.5 -7.5
v -7.3 1.5 -8.4
v -1.1 1.5 -8.4
v -7.7 1.6 -7.8
v -7.6 1.6 -7.8
v -0.8 1.6 -7.8
v -0.7 1.6 -7.8
v -7.7 1.6 -8
v -7.6 1.6 -8
v -0.8 1.6 -8
v -0.7 1.6 -8
v -7.7 1.8 -7.4
v -7.6 1.8 -7.4
v -0.8 1.8 -7.4
v -0.7 1.8 -7.4
v -7.7 1.8 -7.5
v -7.6 1.8 -7.5
v -0.8 1.8 -7.5
v -0.7 1.8 -7.5
v -7.6 1.8 -7.8
v -7.4 1.8 -7.8
v -1 1.8 -7.8
v -0.8 1.8 -7.8
v -7.6 1.8 -8
v -7.4 1.8 -8
v -1 1.8 -8
v -0.8 1.8 -8
v -7.7 1.8 -8.1
v -7.6 1.8 -8.1
v -0.8 1.8 -8.1
v -0.7 1.8 -8.1
v -7.7 1.8 -8.5
v -7.6 1.8 -8.5
v -0.8 1.8 -8.5
v -0.7 1.8 -8.5
v -7.7 1.9 -7.5
v -7.6 1.9 -7.5
v -0.8 1.9 -7.5
v -0.7 1.9 -7.5
v -7.7 1.9 -8.1
v -7.6 1.9 -8.1
v -0.8 1.9 -8.1
v -0.7 1.9 -8.1
v -7.7 1.9 -8.5
v -7.6 1.9 -8.5
v -0.8 1.9 -8.5
v -0.7 1.9 -8.5
v -7.7 1.9 -8.6
v -7.6 1.9 -8.6
v -0.8 1.9 -8.6
v -0.7 1.9 -8.6
v -7.6 2.1 -7
v -0.8 2.1 -7
v -7.6 2.1 -8.8
v -0.8 2.1 -8.8
v -7.7 2.2 -7
v -7.6 2.2 -7
v -0.8 2.2 -7
v -0.7 2.2 -7
v -7.6 2.2 -8.8
v -0.8 2.2 -8.8
v -7.7 2.2 -8.9
v -0.7 2.2 -8.9

# faces
f 3/3/1 2/3/1 1/3/1
f 4/3/1 2/3/1 3/3/1
f 5/3/1 2/3/1 4/3/1
f 6/3/1 2/3/1 5/3/1
f 10/3/1 8/3/1 7/3/1
f 11/3/1 8/3/1 10/3/1
f 13/3/1 10/3/1 9/3/1
f 14/3/1 10/3/1 13/3/1
f 16/3/1 13/3/1 12/3/1
f 17/3/1 13/3/1 16/3/1
f 21/3/1 19/3/1 18/3/1
f 22/3/1 19/3/1 21/3/1
f 23/3/1 19/3/1 22/3/1
f 24/3/1 19/3/1 23/3/1
f 25/3/1 16/3/1 15/3/1
f 26/3/1 21/3/1 20/3/1
f 26/3/1 22/3/1 21/3/1
f 27/3/1 22/3/1 26/3/1
f 28/3/1 22/3/1 27/3/1
f 29/3/1 24/3/1 23/3/1
f 29/3/1 25/3/1 24/3/1
f 30/3/1 25/3/1 29/3/1
f 31/3/1 16/3/1 25/3/1
f 31/3/1 25/3/1 30/3/1
f 33/3/1 28/3/1 27/3/1
f 33/3/1 29/3/1 28/3/1
f 33/3/1 30/3/1 29/3/1
f 34/3/1 30/3/1 33/3/1
f 35/3/1 32/3/1 31/3/1
f 36/3/1 32/3/1 35/3/1
f 39/3/1 37/3/1 36/3/1
f 40/3/1 37/3/1 39/3/1
f 42/2/1 40/2/1 39/2/1
f 42/2/1 41/2/1 40/2/1
f 42/2/1 39/2/1 38/2/1
f 43/2/1 41/2/1 42/2/1
f 44/1/1 43/1/1 42/1/1
f 45/1/1 43/1/1 44/1/1
f 48/4/1 47/4/1 46/4/1
f 49/4/1 47/4/1 48/4/1
f 52/3/1 51/3/1 50/3/1
f 53/3/1 51/3/1 52/3/1
f 56/4/1 55/4/1 54/4/1
f 57/4/1 55/4/1 56/4/1
f 58/4/1 56/4/1 54/4/1
f 59/4/1 55/4/1 57/4/1
f 60/4/1 58/4/1 54/4/1
f 60/4/1 59/4/1 58/4/1
f 61/4/1 55/4/1 59/4/1
f 61/4/1 59/4/1 60/4/1
f 64/4/1 63/4/1 62/4/1
f 65/4/1 63/4/1 64/4/1
f 67/4/1 66/4/1 65/4/1
f 68/4/1 66/4/1 67/4/1
f 71/4/1 70/4/1 69/4/1
f 72/4/1 70/4/1 71/4/1
f 75/3/1 74/3/1 73/3/1
f 76/3/1 74/3/1 75/3/1
f 78/3/1 77/3/1 76/3/1
f 79/3/1 77/3/1 78/3/1
f 83/3/1 81/3/1 80/3/1
f 84/3/1 81/3/1 83/3/1
f 86/3/1 83/3/1 82/3/1
f 87/3/1 83/3/1 86/3/1
f 89/3/1 86/3/1 85/3/1
f 90/3/1 86/3/1 89/3/1
f 94/3/1 92/3/1 91/3/1
f 95/3/1 92/3/1 94/3/1
f 96/3/1 92/3/1 95/3/1
f 97/3/1 92/3/1 96/3/1
f 98/3/1 89/3/1 88/3/1
f 99/3/1 94/3/1 93/3/1
f 99/3/1 95/3/1 94/3/1
f 100/3/1 95/3/1 99/3/1
f 101/3/1 95/3/1 100/3/1
f 102/3/1 97/3/1 96/3/1
f 102/3/1 98/3/1 97/3/1
f 103/3/1 98/3/1 102/3/1
f 104/3/1 89/3/1 98/3/1
f 104/3/1 98/3/1 103/3/1
f 106/3/1 101/3/1 100/3/1
f 106/3/1 102/3/1 101/3/1
f 106/3/1 103/3/1 102/3/1
f 107/3/1 103/3/1 106/3/1
f 108/3/1 105/3/1 104/3/1
f 109/3/1 105/3/1 108/3/1
f 112/1/1 111/1/1 110/1/1
f 113/1/1 111/1/1 112/1/1
f 114/3/2 115/3/2 116/3/2
f 116/3/2 115/3/2 117/3/2
f 117/3/2 118/3/2 119/3/2
f 119/3/2 118/3/2 120/3/2
f 121/3/2 122/3/2 124/3/2
f 124/3/2 122/3/2 125/3/2
f 123/3/2 124/3/2 127/3/2
f 127/3/2 124/3/2 128/3/2
f 126/3/2 127/3/2 130/3/2
f 130/3/2 127/3/2 131/3/2
f 132/3/2 133/3/2 135/3/2
f 135/3/2 133/3/2 136/3/2
f 136/3/2 133/3/2 137/3/2
f 137/3/2 133/3/2 138/3/2
f 129/3/2 130/3/2 139/3/2
f 134/3/2 135/3/2 140/3/2
f 135/3/2 136/3/2 140/3/2
f 140/3/2 136/3/2 141/3/2
f 141/3/2 136/3/2 142/3/2
f 137/3/2 138/3/2 143/3/2
f 138/3/2 139/3/2 143/3/2
f 143/3/2 139/3/2 144/3/2
f 139/3/2 130/3/2 145/3/2
f 144/3/2 139/3/2 145/3/2
f 141/3/2 142/3/2 147/3/2
f 142/3/2 143/3/2 147/3/2
f 143/3/2 144/3/2 147/3/2
f 147/3/2 144/3/2 148/3/2
f 145/3/2 146/3/2 149/3/2
f 149/3/2 146/3/2 150/3/2
f 151/1/2 152/1/2 153/1/2
f 153/1/2 152/1/2 154/1/2
f 155/4/2 156/4/2 157/4/2
f 157/4/2 156/4/2 158/4/2
f 159/4/2 160/4/2 161/4/2
f 161/4/2 160/4/2 162/4/2
f 162/4/2 163/4/2 164/4/2
f 164/4/2 163/4/2 165/4/2
f 166/4/2 167/4/2 168/4/2
f 168/4/2 167/4/2 169/4/2
f 166/4/2 168/4/2 170/4/2
f 169/4/2 167/4/2 171/4/2
f 166/4/2 170/4/2 172/4/2
f 170/4/2 171/4/2 172/4/2
f 171/4/2 167/4/2 173/4/2
f 172/4/2 171/4/2 173/4/2
f 174/3/2 175/3/2 176/3/2
f 176/3/2 175/3/2 177/3/2
f 178/4/2 179/4/2 180/4/2
f 180/4/2 179/4/2 181/4/2
f 182/3/2 183/3/2 184/3/2
f 184/3/2 183/3/2 185/3/2
f 185/3/2 183/3/2 186/3/2
f 186/3/2 183/3/2 187/3/2
f 188/3/2 189/3/2 191/3/2
f 191/3/2 189/3/2 192/3/2
f 190/3/2 191/3/2 194/3/2
f 194/3/2 191/3/2 195/3/2
f 193/3/2 194/3/2 197/3/2
f 197/3/2 194/3/2 198/3/2
f 199/3/2 200/3/2 202/3/2
f 202/3/2 200/3/2 203/3/2
f 203/3/2 200/3/2 204/3/2
f 204/3/2 200/3/2 205/3/2
f 196/3/2 197/3/2 206/3/2
f 201/3/2 202/3/2 207/3/2
f 202/3/2 203/3/2 207/3/2
f 207/3/2 203/3/2 208/3/2
f 208/3/2 203/3/2 209/3/2
f 204/3/2 205/3/2 210/3/2
f 205/3/2 206/3/2 210/3/2
f 210/3/2 206/3/2 211/3/2
f 206/3/2 197/3/2 212/3/2
f 211/3/2 206/3/2 212/3/2
f 208/3/2 209/3/2 214/3/2
f 209/3/2 210/3/2 214/3/2
f 210/3/2 211/3/2 214/3/2
f 214/3/2 211/3/2 215/3/2
f 212/3/2 213/3/2 216/3/2
f 216/3/2 213/3/2 217/3/2
f 217/3/2 218/3/2 220/3/2
f 220/3/2 218/3/2 221/3/2
f 220/2/2 221/2/2 223/2/2
f 221/2/2 222/2/2 223/2/2
f 219/2/2 220/2/2 223/2/2
f 223/2/2 222/2/2 224/2/2
f 223/1/2 224/1/2 225/1/2
f 225/1/2 224/1/2 226/1/2
f 229/3/3 228/3/3 227/3/3
f 230/3/3 228/3/3 229/3/3
f 233/3/3 232/3/3 231/3/3
f 234/3/3 232/3/3 233/3/3
f 238/2/3 236/2/3 235/2/3
f 238/1/3 237/1/3 236/1/3
f 239/1/3 237/1/3 238/1/3
f 240/2/3 238/2/3 235/2/3
f 242/2/3 240/2/3 235/2/3
f 243/1/3 241/1/3 240/1/3
f 243/2/3 240/2/3 242/2/3
f 244/1/3 241/1/3 243/1/3
f 247/3/3 246/3/3 245/3/3
f 248/3/3 246/3/3 247/3/3
f 251/3/3 250/3/3 249/3/3
f 252/3/3 250/3/3 251/3/3
f 257/3/3 254/3/3 253/3/3
f 258/3/3 254/3/3 257/3/3
f 259/3/3 256/3/3 255/3/3
f 260/3/3 256/3/3 259/3/3
f 264/4/3 262/4/3 261/4/3
f 265/4/3 262/4/3 264/4/3
f 266/4/3 264/4/3 263/4/3
f 267/4/3 264/4/3 266/4/3
f 269/4/3 268/4/3 267/4/3
f 270/4/3 268/4/3 269/4/3
f 275/3/3 272/3/3 271/3/3
f 276/3/3 272/3/3 275/3/3
f 277/3/3 274/3/3 273/3/3
f 278/3/3 274/3/3 277/3/3
f 281/4/3 280/4/3 279/4/3
f 282/4/3 280/4/3 281/4/3
f 285/4/3 284/4/3 283/4/3
f 286/4/3 284/4/3 285/4/3
f 289/3/3 288/3/3 287/3/3
f 290/3/3 288/3/3 289/3/3
f 293/3/3 292/3/3 291/3/3
f 294/3/3 292/3/3 293/3/3
f 297/3/3 296/3/3 295/3/3
f 298/3/3 296/3/3 297/3/3
f 301/4/3 300/4/3 299/4/3
f 302/4/3 300/4/3 301/4/3
f 305/3/3 304/3/3 303/3/3
f 306/3/3 304/3/3 305/3/3
f 311/3/3 308/3/3 307/3/3
f 312/3/3 308/3/3 311/3/3
f 313/3/3 310/3/3 309/3/3
f 314/3/3 310/3/3 313/3/3
f 319/3/3 316/3/3 315/3/3
f 320/3/3 316/3/3 319/3/3
f 321/3/3 318/3/3 317/3/3
f 322/3/3 318/3/3 321/3/3
f 327/3/3 324/3/3 323/3/3
f 328/3/3 324/3/3 327/3/3
f 329/3/3 326/3/3 325/3/3
f 332/3/3 326/3/3 329/3/3
f 333/3/3 331/3/3 330/3/3
f 334/3/3 331/3/3 333/3/3
f 335/3/3 326/3/3 332/3/3
f 336/3/3 326/3/3 335/3/3
f 339/3/3 338/3/3 337/3/3
f 340/3/3 338/3/3 339/3/3
f 343/3/3 342/3/3 341/3/3
f 344/3/3 342/3/3 343/3/3
f 347/3/3 346/3/3 345/3/3
f 348/3/3 346/3/3 347/3/3
f 352/3/3 350/3/3 349/3/3
f 353/3/3 350/3/3 352/3/3
f 356/3/3 352/3/3 351/3/3
f 357/3/3 352/3/3 356/3/3
f 360/3/3 359/3/3 358/3/3
f 361/3/3 359/3/3 360/3/3
f 363/1/3 355/1/3 354/1/3
f 364/1/3 355/1/3 363/1/3
f 365/3/3 362/3/3 361/3/3
f 366/3/3 362/3/3 365/3/3
f 367/3/4 368/3/4 369/3/4
f 369/3/4 368/3/4 370/3/4
f 371/3/4 372/3/4 373/3/4
f 373/3/4 372/3/4 374/3/4
f 375/4/4 376/4/4 377/4/4
f 377/4/4 376/4/4 378/4/4
f 379/4/4 380/4/4 381/4/4
f 381/4/4 380/4/4 382/4/4
f 383/3/4 384/3/4 387/3/4
f 387/3/4 384/3/4 388/3/4
f 385/3/4 386/3/4 389/3/4
f 389/3/4 386/3/4 390/3/4
f 391/3/4 392/3/4 395/3/4
f 395/3/4 392/3/4 396/3/4
f 393/3/4 394/3/4 397/3/4
f 397/3/4 394/3/4 398/3/4
f 399/4/4 400/4/4 402/4/4
f 402/4/4 400/4/4 403/4/4
f 401/4/4 402/4/4 404/4/4
f 404/4/4 402/4/4 405/4/4
f 405/4/4 406/4/4 407/4/4
f 407/4/4 406/4/4 408/4/4
f 409/3/4 410/3/4 411/3/4
f 411/3/4 410/3/4 412/3/4
f 413/4/4 414/4/4 415/4/4
f 415/4/4 414/4/4 416/4/4
f 417/3/4 418/3/4 419/3/4
f 419/3/4 418/3/4 420/3/4
f 421/3/4 422/3/4 425/3/4
f 425/3/4 422/3/4 426/3/4
f 423/3/4 424/3/4 427/3/4
f 427/3/4 424/3/4 428/3/4
f 429/3/4 430/3/4 433/3/4
f 433/3/4 430/3/4 434/3/4
f 431/3/4 432/3/4 435/3/4
f 435/3/4 432/3/4 436/3/4
f 437/3/4 438/3/4 441/3/4
f 441/3/4 438/3/4 442/3/4
f 443/3/4 444/3/4 445/3/4
f 445/3/4 444/3/4 446/3/4
f 439/3/4 440/3/4 447/3/4
f 447/3/4 440/3/4 448/3/4
f 449/3/4 450/3/4 451/3/4
f 451/3/4 450/3/4 452/3/4
f 453/3/4 454/3/4 455/3/4
f 455/3/4 454/3/4 456/3/4
f 457/3/4 458/3/4 462/3/4
f 462/3/4 458/3/4 463/3/4
f 457/3/4 462/3/4 464/3/4
f 457/3/4 464/3/4 466/3/4
f 464/3/4 465/3/4 466/3/4
f 466/3/4 465/3/4 467/3/4
f 459/2/4 460/2/4 468/2/4
f 460/1/4 461/1/4 469/1/4
f 468/2/4 460/2/4 469/2/4
f 469/1/4 461/1/4 470/1/4
f 477/3/5 472/3/5 471/3/5
f 478/3/5 476/3/5 475/3/5
f 479/3/5 476/3/5 478/3/5
f 480/3/5 474/3/5 473/3/5
f 481/3/5 477/3/5 471/3/5
f 481/3/5 480/3/5 479/3/5
f 481/3/5 479/3/5 478/3/5
f 481/3/5 478/3/5 477/3/5
f 482/3/5 474/3/5 480/3/5
f 482/3/5 480/3/5 481/3/5
f 487/3/5 484/3/5 483/3/5
f 488/3/5 484/3/5 487/3/5
f 489/3/5 486/3/5 485/3/5
f 490/3/5 486/3/5 489/3/5
f 495/3/5 492/3/5 491/3/5
f 496/3/5 492/3/5 495/3/5
f 497/3/5 494/3/5 493/3/5
f 498/3/5 494/3/5 497/3/5
f 503/3/5 500/3/5 499/3/5
f 504/3/5 500/3/5 503/3/5
f 505/3/5 502/3/5 501/3/5
f 506/3/5 502/3/5 505/3/5
f 511/3/5 508/3/5 507/3/5
f 512/3/5 508/3/5 511/3/5
f 513/3/5 510/3/5 509/3/5
f 514/3/5 510/3/5 513/3/5
f 517/4/5 516/4/5 515/4/5
f 518/4/5 516/4/5 517/4/5
f 527/3/5 520/3/5 519/3/5
f 528/3/5 520/3/5 527/3/5
f 529/3/5 526/3/5 525/3/5
f 530/3/5 526/3/5 529/3/5
f 531/4/5 522/4/5 521/4/5
f 532/4/5 522/4/5 531/4/5
f 533/4/5 524/4/5 523/4/5
f 534/4/5 524/4/5 533/4/5
f 535/4/5 533/4/5 532/4/5
f 536/4/5 533/4/5 535/4/5
f 541/3/5 538/3/5 537/3/5
f 542/3/5 538/3/5 541/3/5
f 543/3/5 540/3/5 539/3/5
f 544/3/5 540/3/5 543/3/5
f 549/4/5 546/4/5 545/4/5
f 550/4/5 546/4/5 549/4/5
f 551/4/5 548/4/5 547/4/5
f 552/4/5 548/4/5 551/4/5
f 557/3/5 554/3/5 553/3/5
f 558/3/5 554/3/5 557/3/5
f 559/3/5 556/3/5 555/3/5
f 560/3/5 556/3/5 559/3/5
f 565/3/5 562/3/5 561/3/5
f 566/3/5 562/3/5 565/3/5
f 567/3/5 564/3/5 563/3/5
f 568/3/5 564/3/5 567/3/5
f 573/3/5 570/3/5 569/3/5
f 574/3/5 570/3/5 573/3/5
f 575/3/5 572/3/5 571/3/5
f 576/3/5 572/3/5 575/3/5
f 581/3/5 578/3/5 577/3/5
f 581/3/5 580/3/5 579/3/5
f 581/3/5 579/3/5 578/3/5
f 582/3/5 580/3/5 581/3/5
f 585/2/5 584/2/5 583/2/5
f 586/2/5 584/2/5 585/2/5
f 587/2/5 584/2/5 586/2/5
f 588/2/5 584/2/5 587/2/5
f 589/2/5 585/2/5 583/2/5
f 590/2/5 587/2/5 586/2/5
f 591/2/5 587/2/5 590/2/5
f 592/2/5 584/2/5 588/2/5
f 593/2/5 590/2/5 589/2/5
f 594/2/5 592/2/5 591/2/5
f 595/2/5 593/2/5 589/2/5
f 595/2/5 594/2/5 593/2/5
f 595/2/5 589/2/5 583/2/5
f 596/2/5 592/2/5 594/2/5
f 596/2/5 594/2/5 595/2/5
f 596/2/5 584/2/5 592/2/5
f 599/2/5 598/2/5 597/2/5
f 600/2/5 598/2/5 599/2/5
f 601/3/6 602/3/6 607/3/6
f 607/3/6 602/3/6 608/3/6
f 605/3/6 606/3/6 609/3/6
f 609/3/6 606/3/6 610/3/6
f 603/3/6 604/3/6 611/3/6
f 611/3/6 604/3/6 612/3/6
f 609/3/6 610/3/6 613/3/6
f 610/3/6 611/3/6 613/3/6
f 608/3/6 609/3/6 613/3/6
f 613/3/6 611/3/6 614/3/6
f 615/3/6 616/3/6 619/3/6
f 619/3/6 616/3/6 620/3/6
f 617/3/6 618/3/6 621/3/6
f 621/3/6 618/3/6 622/3/6
f 623/3/6 624/3/6 627/3/6
f 627/3/6 624/3/6 628/3/6
f 625/3/6 626/3/6 629/3/6
f 629/3/6 626/3/6 630/3/6
f 631/3/6 632/3/6 635/3/6
f 635/3/6 632/3/6 636/3/6
f 633/3/6 634/3/6 637/3/6
f 637/3/6 634/3/6 638/3/6
f 639/3/6 640/3/6 643/3/6
f 643/3/6 640/3/6 644/3/6
f 641/3/6 642/3/6 645/3/6
f 645/3/6 642/3/6 646/3/6
f 647/4/6 648/4/6 649/4/6
f 649/4/6 648/4/6 650/4/6
f 651/3/6 652/3/6 655/3/6
f 655/3/6 652/3/6 656/3/6
f 653/3/6 654/3/6 657/3/6
f 657/3/6 654/3/6 658/3/6
f 659/3/6 660/3/6 663/3/6
f 663/3/6 660/3/6 664/3/6
f 661/3/6 662/3/6 665/3/6
f 665/3/6 662/3/6 666/3/6
f 667/4/6 668/4/6 671/4/6
f 671/4/6 668/4/6 672/4/6
f 669/4/6 670/4/6 673/4/6
f 673/4/6 670/4/6 674/4/6
f 675/3/6 676/3/6 679/3/6
f 679/3/6 676/3/6 680/3/6
f 677/3/6 678/3/6 681/3/6
f 681/3/6 678/3/6 682/3/6
f 683/3/6 684/3/6 687/3/6
f 687/3/6 684/3/6 688/3/6
f 685/3/6 686/3/6 689/3/6
f 689/3/6 686/3/6 690/3/6
f 691/3/6 692/3/6 695/3/6
f 695/3/6 692/3/6 696/3/6
f 693/3/6 694/3/6 697/3/6
f 697/3/6 694/3/6 698/3/6
f 699/2/6 700/2/6 701/2/6
f 701/2/6 700/2/6 702/2/6
f 703/1/6 704/1/6 707/1/6
f 705/1/6 706/1/6 708/1/6
f 703/1/6 707/1/6 709/1/6
f 707/1/6 708/1/6 709/1/6
f 708/1/6 706/1/6 710/1/6
f 709/1/6 708/1/6 710/1/6
