# MagicaVoxel @ Ephtracy

# group
o 

# material
mtllib 114-2.mtl
usemtl palette

# normals
vn -1 0 0
vn 1 0 0
vn 0 0 1
vn 0 0 -1
vn 0 -1 0
vn 0 1 0

# texcoords
vt 0.0605469 0.5
vt 0.958984 0.5
vt 0.966797 0.5
vt 0.970703 0.5

# verts
v -9 6.3 12.5
v -9 6.3 -12.5
v -9 6.4 12.5
v -9 6.4 -12.5
v -6.5 6.2 11.2
v -6.5 6.2 6.6
v -6.5 6.2 3
v -6.5 6.2 -1.6
v -6.5 6.2 -6.4
v -6.5 6.2 -11
v -6.5 6.3 11.2
v -6.5 6.3 6.6
v -6.5 6.3 3
v -6.5 6.3 -1.6
v -6.5 6.3 -6.4
v -6.5 6.3 -11
v -6.4 6.1 11.1
v -6.4 6.1 6.7
v -6.4 6.1 2.9
v -6.4 6.1 -1.5
v -6.4 6.1 -6.5
v -6.4 6.1 -10.9
v -6.4 6.2 11.1
v -6.4 6.2 6.7
v -6.4 6.2 2.9
v -6.4 6.2 -1.5
v -6.4 6.2 -6.5
v -6.4 6.2 -10.9
v -2.3 5.8 -4
v -2.3 5.8 -7
v -2.3 5.9 -4
v -2.3 5.9 -7
v -2.2 5.9 -4.2
v -2.2 5.9 -6.9
v -2.2 6.3 -4.2
v -2.2 6.3 -6.9
v 1.8 5.3 -4.1
v 1.8 5.3 -4.5
v 1.8 5.8 -4.1
v 1.8 5.8 -4.5
v 1.9 4.4 -4.2
v 1.9 4.4 -4.4
v 1.9 5.3 -4.2
v 1.9 5.3 -4.4
v 4.1 6.2 11.2
v 4.1 6.2 6.6
v 4.1 6.2 3
v 4.1 6.2 -1.6
v 4.1 6.2 -6.4
v 4.1 6.2 -11
v 4.1 6.3 11.2
v 4.1 6.3 6.6
v 4.1 6.3 3
v 4.1 6.3 -1.6
v 4.1 6.3 -6.4
v 4.1 6.3 -11
v 4.2 6.1 11.1
v 4.2 6.1 6.7
v 4.2 6.1 2.9
v 4.2 6.1 -1.5
v 4.2 6.1 -6.5
v 4.2 6.1 -10.9
v 4.2 6.2 11.1
v 4.2 6.2 6.7
v 4.2 6.2 2.9
v 4.2 6.2 -1.5
v 4.2 6.2 -6.5
v 4.2 6.2 -10.9
v -4.2 6.1 11.1
v -4.2 6.1 6.7
v -4.2 6.1 2.9
v -4.2 6.1 -1.5
v -4.2 6.1 -6.5
v -4.2 6.1 -10.9
v -4.2 6.2 11.1
v -4.2 6.2 6.7
v -4.2 6.2 2.9
v -4.2 6.2 -1.5
v -4.2 6.2 -6.5
v -4.2 6.2 -10.9
v -4.1 6.2 11.2
v -4.1 6.2 6.6
v -4.1 6.2 3
v -4.1 6.2 -1.6
v -4.1 6.2 -6.4
v -4.1 6.2 -11
v -4.1 6.3 11.2
v -4.1 6.3 6.6
v -4.1 6.3 3
v -4.1 6.3 -1.6
v -4.1 6.3 -6.4
v -4.1 6.3 -11
v 2.1 4.4 -4.2
v 2.1 4.4 -4.4
v 2.1 5.3 -4.2
v 2.1 5.3 -4.4
v 2.2 5.3 -4.1
v 2.2 5.3 -4.5
v 2.2 5.8 -4.1
v 2.2 5.8 -4.5
v 2.2 5.9 -4.2
v 2.2 5.9 -6.9
v 2.2 6.3 -4.2
v 2.2 6.3 -6.9
v 2.3 5.8 -4
v 2.3 5.8 -7
v 2.3 5.9 -4
v 2.3 5.9 -7
v 6.4 6.1 11.1
v 6.4 6.1 6.7
v 6.4 6.1 2.9
v 6.4 6.1 -1.5
v 6.4 6.1 -6.5
v 6.4 6.1 -10.9
v 6.4 6.2 11.1
v 6.4 6.2 6.7
v 6.4 6.2 2.9
v 6.4 6.2 -1.5
v 6.4 6.2 -6.5
v 6.4 6.2 -10.9
v 6.5 6.2 11.2
v 6.5 6.2 6.6
v 6.5 6.2 3
v 6.5 6.2 -1.6
v 6.5 6.2 -6.4
v 6.5 6.2 -11
v 6.5 6.3 11.2
v 6.5 6.3 6.6
v 6.5 6.3 3
v 6.5 6.3 -1.6
v 6.5 6.3 -6.4
v 6.5 6.3 -11
v 9 6.3 12.5
v 9 6.3 -12.5
v 9 6.4 12.5
v 9 6.4 -12.5
v -9 6.3 12.5
v -9 6.4 12.5
v 9 6.3 12.5
v 9 6.4 12.5
v -6.5 6.2 11.2
v -6.5 6.3 11.2
v -4.1 6.2 11.2
v -4.1 6.3 11.2
v 4.1 6.2 11.2
v 4.1 6.3 11.2
v 6.5 6.2 11.2
v 6.5 6.3 11.2
v -6.4 6.1 11.1
v -6.4 6.2 11.1
v -4.2 6.1 11.1
v -4.2 6.2 11.1
v 4.2 6.1 11.1
v 4.2 6.2 11.1
v 6.4 6.1 11.1
v 6.4 6.2 11.1
v -6.5 6.2 3
v -6.5 6.3 3
v -4.1 6.2 3
v -4.1 6.3 3
v 4.1 6.2 3
v 4.1 6.3 3
v 6.5 6.2 3
v 6.5 6.3 3
v -6.4 6.1 2.9
v -6.4 6.2 2.9
v -4.2 6.1 2.9
v -4.2 6.2 2.9
v 4.2 6.1 2.9
v 4.2 6.2 2.9
v 6.4 6.1 2.9
v 6.4 6.2 2.9
v -2.3 5.8 -4
v -2.3 5.9 -4
v 2.3 5.8 -4
v 2.3 5.9 -4
v 1.8 5.3 -4.1
v 1.8 5.8 -4.1
v 2.2 5.3 -4.1
v 2.2 5.8 -4.1
v -2.2 5.9 -4.2
v -2.2 6.3 -4.2
v 1.8 5.9 -4.2
v 1.9 4.4 -4.2
v 1.9 5.3 -4.2
v 2.1 4.4 -4.2
v 2.1 5.3 -4.2
v 2.2 5.9 -4.2
v 2.2 6.3 -4.2
v -6.5 6.2 -6.4
v -6.5 6.3 -6.4
v -4.1 6.2 -6.4
v -4.1 6.3 -6.4
v 4.1 6.2 -6.4
v 4.1 6.3 -6.4
v 6.5 6.2 -6.4
v 6.5 6.3 -6.4
v -6.4 6.1 -6.5
v -6.4 6.2 -6.5
v -4.2 6.1 -6.5
v -4.2 6.2 -6.5
v 4.2 6.1 -6.5
v 4.2 6.2 -6.5
v 6.4 6.1 -6.5
v 6.4 6.2 -6.5
v -6.4 6.1 6.7
v -6.4 6.2 6.7
v -4.2 6.1 6.7
v -4.2 6.2 6.7
v 4.2 6.1 6.7
v 4.2 6.2 6.7
v 6.4 6.1 6.7
v 6.4 6.2 6.7
v -6.5 6.2 6.6
v -6.5 6.3 6.6
v -4.1 6.2 6.6
v -4.1 6.3 6.6
v 4.1 6.2 6.6
v 4.1 6.3 6.6
v 6.5 6.2 6.6
v 6.5 6.3 6.6
v -6.4 6.1 -1.5
v -6.4 6.2 -1.5
v -4.2 6.1 -1.5
v -4.2 6.2 -1.5
v 4.2 6.1 -1.5
v 4.2 6.2 -1.5
v 6.4 6.1 -1.5
v 6.4 6.2 -1.5
v -6.5 6.2 -1.6
v -6.5 6.3 -1.6
v -4.1 6.2 -1.6
v -4.1 6.3 -1.6
v 4.1 6.2 -1.6
v 4.1 6.3 -1.6
v 6.5 6.2 -1.6
v 6.5 6.3 -1.6
v 1.9 4.4 -4.4
v 1.9 5.3 -4.4
v 2.1 4.4 -4.4
v 2.1 5.3 -4.4
v 1.8 5.3 -4.5
v 1.8 5.8 -4.5
v 2.2 5.3 -4.5
v 2.2 5.8 -4.5
v -2.2 5.9 -6.9
v -2.2 6.3 -6.9
v 2.2 5.9 -6.9
v 2.2 6.3 -6.9
v -2.3 5.8 -7
v -2.3 5.9 -7
v 2.3 5.8 -7
v 2.3 5.9 -7
v -6.4 6.1 -10.9
v -6.4 6.2 -10.9
v -4.2 6.1 -10.9
v -4.2 6.2 -10.9
v 4.2 6.1 -10.9
v 4.2 6.2 -10.9
v 6.4 6.1 -10.9
v 6.4 6.2 -10.9
v -6.5 6.2 -11
v -6.5 6.3 -11
v -4.1 6.2 -11
v -4.1 6.3 -11
v 4.1 6.2 -11
v 4.1 6.3 -11
v 6.5 6.2 -11
v 6.5 6.3 -11
v -9 6.3 -12.5
v -9 6.4 -12.5
v 9 6.3 -12.5
v 9 6.4 -12.5
v 1.9 4.4 -4.2
v 2.1 4.4 -4.2
v 1.9 4.4 -4.4
v 2.1 4.4 -4.4
v 1.8 5.3 -4.1
v 2.2 5.3 -4.1
v 1.9 5.3 -4.2
v 2.1 5.3 -4.2
v 1.9 5.3 -4.4
v 2.1 5.3 -4.4
v 1.8 5.3 -4.5
v 2.2 5.3 -4.5
v -2.3 5.8 -4
v 2.3 5.8 -4
v 1.8 5.8 -4.1
v 2.2 5.8 -4.1
v 1.8 5.8 -4.5
v 2.2 5.8 -4.5
v -2.3 5.8 -7
v 2.3 5.8 -7
v -6.4 6.1 11.1
v -4.2 6.1 11.1
v 4.2 6.1 11.1
v 6.4 6.1 11.1
v -6.4 6.1 6.7
v -4.2 6.1 6.7
v 4.2 6.1 6.7
v 6.4 6.1 6.7
v -6.4 6.1 2.9
v -4.2 6.1 2.9
v 4.2 6.1 2.9
v 6.4 6.1 2.9
v -6.4 6.1 -1.5
v -4.2 6.1 -1.5
v 4.2 6.1 -1.5
v 6.4 6.1 -1.5
v -6.4 6.1 -6.5
v -4.2 6.1 -6.5
v 4.2 6.1 -6.5
v 6.4 6.1 -6.5
v -6.4 6.1 -10.9
v -4.2 6.1 -10.9
v 4.2 6.1 -10.9
v 6.4 6.1 -10.9
v -6.5 6.2 11.2
v -4.1 6.2 11.2
v 4.1 6.2 11.2
v 6.5 6.2 11.2
v -6.4 6.2 11.1
v -4.2 6.2 11.1
v 4.2 6.2 11.1
v 6.4 6.2 11.1
v -6.4 6.2 6.7
v -4.2 6.2 6.7
v 4.2 6.2 6.7
v 6.4 6.2 6.7
v -6.5 6.2 6.6
v -4.1 6.2 6.6
v 4.1 6.2 6.6
v 6.5 6.2 6.6
v -6.5 6.2 3
v -4.1 6.2 3
v 4.1 6.2 3
v 6.5 6.2 3
v -6.4 6.2 2.9
v -4.2 6.2 2.9
v 4.2 6.2 2.9
v 6.4 6.2 2.9
v -6.4 6.2 -1.5
v -4.2 6.2 -1.5
v 4.2 6.2 -1.5
v 6.4 6.2 -1.5
v -6.5 6.2 -1.6
v -4.1 6.2 -1.6
v 4.1 6.2 -1.6
v 6.5 6.2 -1.6
v -6.5 6.2 -6.4
v -4.1 6.2 -6.4
v 4.1 6.2 -6.4
v 6.5 6.2 -6.4
v -6.4 6.2 -6.5
v -4.2 6.2 -6.5
v 4.2 6.2 -6.5
v 6.4 6.2 -6.5
v -6.4 6.2 -10.9
v -4.2 6.2 -10.9
v 4.2 6.2 -10.9
v 6.4 6.2 -10.9
v -6.5 6.2 -11
v -4.1 6.2 -11
v 4.1 6.2 -11
v 6.5 6.2 -11
v -9 6.3 12.5
v 9 6.3 12.5
v -6.5 6.3 11.2
v -4.1 6.3 11.2
v 4.1 6.3 11.2
v 6.5 6.3 11.2
v -6.5 6.3 6.6
v -4.1 6.3 6.6
v 4.1 6.3 6.6
v 6.5 6.3 6.6
v -6.5 6.3 3
v -4.1 6.3 3
v 4.1 6.3 3
v 6.5 6.3 3
v -6.5 6.3 -1.6
v -4.1 6.3 -1.6
v 4.1 6.3 -1.6
v 6.5 6.3 -1.6
v -2.2 6.3 -4.2
v 2.2 6.3 -4.2
v -6.5 6.3 -6.4
v -4.1 6.3 -6.4
v 4.1 6.3 -6.4
v 6.5 6.3 -6.4
v -2.2 6.3 -6.9
v 2.2 6.3 -6.9
v -6.5 6.3 -11
v -4.1 6.3 -11
v 4.1 6.3 -11
v 6.5 6.3 -11
v -9 6.3 -12.5
v 9 6.3 -12.5
v -2.3 5.9 -4
v 2.3 5.9 -4
v 1.8 5.9 -4.1
v 2.2 5.9 -4.1
v -2.2 5.9 -4.2
v 1.8 5.9 -4.2
v 2.2 5.9 -4.2
v -2.2 5.9 -6.9
v 2.2 5.9 -6.9
v -2.3 5.9 -7
v 2.3 5.9 -7
v -9 6.4 12.5
v 9 6.4 12.5
v -9 6.4 -12.5
v 9 6.4 -12.5

# faces
f 3/3/1 2/3/1 1/3/1
f 4/3/1 2/3/1 3/3/1
f 11/4/1 6/4/1 5/4/1
f 12/4/1 6/4/1 11/4/1
f 13/4/1 8/4/1 7/4/1
f 14/4/1 8/4/1 13/4/1
f 15/4/1 10/4/1 9/4/1
f 16/4/1 10/4/1 15/4/1
f 23/2/1 18/2/1 17/2/1
f 24/2/1 18/2/1 23/2/1
f 25/2/1 20/2/1 19/2/1
f 26/2/1 20/2/1 25/2/1
f 27/2/1 22/2/1 21/2/1
f 28/2/1 22/2/1 27/2/1
f 31/1/1 30/1/1 29/1/1
f 32/1/1 30/1/1 31/1/1
f 35/1/1 34/1/1 33/1/1
f 36/1/1 34/1/1 35/1/1
f 39/1/1 38/1/1 37/1/1
f 40/1/1 38/1/1 39/1/1
f 43/1/1 42/1/1 41/1/1
f 44/1/1 42/1/1 43/1/1
f 51/4/1 46/4/1 45/4/1
f 52/4/1 46/4/1 51/4/1
f 53/4/1 48/4/1 47/4/1
f 54/4/1 48/4/1 53/4/1
f 55/4/1 50/4/1 49/4/1
f 56/4/1 50/4/1 55/4/1
f 63/2/1 58/2/1 57/2/1
f 64/2/1 58/2/1 63/2/1
f 65/2/1 60/2/1 59/2/1
f 66/2/1 60/2/1 65/2/1
f 67/2/1 62/2/1 61/2/1
f 68/2/1 62/2/1 67/2/1
f 69/2/2 70/2/2 75/2/2
f 75/2/2 70/2/2 76/2/2
f 71/2/2 72/2/2 77/2/2
f 77/2/2 72/2/2 78/2/2
f 73/2/2 74/2/2 79/2/2
f 79/2/2 74/2/2 80/2/2
f 81/4/2 82/4/2 87/4/2
f 87/4/2 82/4/2 88/4/2
f 83/4/2 84/4/2 89/4/2
f 89/4/2 84/4/2 90/4/2
f 85/4/2 86/4/2 91/4/2
f 91/4/2 86/4/2 92/4/2
f 93/1/2 94/1/2 95/1/2
f 95/1/2 94/1/2 96/1/2
f 97/1/2 98/1/2 99/1/2
f 99/1/2 98/1/2 100/1/2
f 101/1/2 102/1/2 103/1/2
f 103/1/2 102/1/2 104/1/2
f 105/1/2 106/1/2 107/1/2
f 107/1/2 106/1/2 108/1/2
f 109/2/2 110/2/2 115/2/2
f 115/2/2 110/2/2 116/2/2
f 111/2/2 112/2/2 117/2/2
f 117/2/2 112/2/2 118/2/2
f 113/2/2 114/2/2 119/2/2
f 119/2/2 114/2/2 120/2/2
f 121/4/2 122/4/2 127/4/2
f 127/4/2 122/4/2 128/4/2
f 123/4/2 124/4/2 129/4/2
f 129/4/2 124/4/2 130/4/2
f 125/4/2 126/4/2 131/4/2
f 131/4/2 126/4/2 132/4/2
f 133/3/2 134/3/2 135/3/2
f 135/3/2 134/3/2 136/3/2
f 139/3/3 138/3/3 137/3/3
f 140/3/3 138/3/3 139/3/3
f 143/4/3 142/4/3 141/4/3
f 144/4/3 142/4/3 143/4/3
f 147/4/3 146/4/3 145/4/3
f 148/4/3 146/4/3 147/4/3
f 151/2/3 150/2/3 149/2/3
f 152/2/3 150/2/3 151/2/3
f 155/2/3 154/2/3 153/2/3
f 156/2/3 154/2/3 155/2/3
f 159/4/3 158/4/3 157/4/3
f 160/4/3 158/4/3 159/4/3
f 163/4/3 162/4/3 161/4/3
f 164/4/3 162/4/3 163/4/3
f 167/2/3 166/2/3 165/2/3
f 168/2/3 166/2/3 167/2/3
f 171/2/3 170/2/3 169/2/3
f 172/2/3 170/2/3 171/2/3
f 175/1/3 174/1/3 173/1/3
f 176/1/3 174/1/3 175/1/3
f 179/1/3 178/1/3 177/1/3
f 180/1/3 178/1/3 179/1/3
f 183/1/3 182/1/3 181/1/3
f 186/1/3 185/1/3 184/1/3
f 187/1/3 185/1/3 186/1/3
f 188/1/3 182/1/3 183/1/3
f 189/1/3 182/1/3 188/1/3
f 192/4/3 191/4/3 190/4/3
f 193/4/3 191/4/3 192/4/3
f 196/4/3 195/4/3 194/4/3
f 197/4/3 195/4/3 196/4/3
f 200/2/3 199/2/3 198/2/3
f 201/2/3 199/2/3 200/2/3
f 204/2/3 203/2/3 202/2/3
f 205/2/3 203/2/3 204/2/3
f 206/2/4 207/2/4 208/2/4
f 208/2/4 207/2/4 209/2/4
f 210/2/4 211/2/4 212/2/4
f 212/2/4 211/2/4 213/2/4
f 214/4/4 215/4/4 216/4/4
f 216/4/4 215/4/4 217/4/4
f 218/4/4 219/4/4 220/4/4
f 220/4/4 219/4/4 221/4/4
f 222/2/4 223/2/4 224/2/4
f 224/2/4 223/2/4 225/2/4
f 226/2/4 227/2/4 228/2/4
f 228/2/4 227/2/4 229/2/4
f 230/4/4 231/4/4 232/4/4
f 232/4/4 231/4/4 233/4/4
f 234/4/4 235/4/4 236/4/4
f 236/4/4 235/4/4 237/4/4
f 238/1/4 239/1/4 240/1/4
f 240/1/4 239/1/4 241/1/4
f 242/1/4 243/1/4 244/1/4
f 244/1/4 243/1/4 245/1/4
f 246/1/4 247/1/4 248/1/4
f 248/1/4 247/1/4 249/1/4
f 250/1/4 251/1/4 252/1/4
f 252/1/4 251/1/4 253/1/4
f 254/2/4 255/2/4 256/2/4
f 256/2/4 255/2/4 257/2/4
f 258/2/4 259/2/4 260/2/4
f 260/2/4 259/2/4 261/2/4
f 262/4/4 263/4/4 264/4/4
f 264/4/4 263/4/4 265/4/4
f 266/4/4 267/4/4 268/4/4
f 268/4/4 267/4/4 269/4/4
f 270/3/4 271/3/4 272/3/4
f 272/3/4 271/3/4 273/3/4
f 276/1/5 275/1/5 274/1/5
f 277/1/5 275/1/5 276/1/5
f 280/1/5 279/1/5 278/1/5
f 281/1/5 279/1/5 280/1/5
f 282/1/5 280/1/5 278/1/5
f 283/1/5 279/1/5 281/1/5
f 284/1/5 282/1/5 278/1/5
f 284/1/5 283/1/5 282/1/5
f 285/1/5 279/1/5 283/1/5
f 285/1/5 283/1/5 284/1/5
f 288/1/5 287/1/5 286/1/5
f 289/1/5 287/1/5 288/1/5
f 290/1/5 288/1/5 286/1/5
f 291/1/5 287/1/5 289/1/5
f 292/1/5 290/1/5 286/1/5
f 292/1/5 291/1/5 290/1/5
f 293/1/5 287/1/5 291/1/5
f 293/1/5 291/1/5 292/1/5
f 298/2/5 295/2/5 294/2/5
f 299/2/5 295/2/5 298/2/5
f 300/2/5 297/2/5 296/2/5
f 301/2/5 297/2/5 300/2/5
f 306/2/5 303/2/5 302/2/5
f 307/2/5 303/2/5 306/2/5
f 308/2/5 305/2/5 304/2/5
f 309/2/5 305/2/5 308/2/5
f 314/2/5 311/2/5 310/2/5
f 315/2/5 311/2/5 314/2/5
f 316/2/5 313/2/5 312/2/5
f 317/2/5 313/2/5 316/2/5
f 322/4/5 319/4/5 318/4/5
f 323/4/5 319/4/5 322/4/5
f 324/4/5 321/4/5 320/4/5
f 325/4/5 321/4/5 324/4/5
f 326/4/5 322/4/5 318/4/5
f 327/4/5 319/4/5 323/4/5
f 328/4/5 324/4/5 320/4/5
f 329/4/5 321/4/5 325/4/5
f 330/4/5 326/4/5 318/4/5
f 330/4/5 327/4/5 326/4/5
f 331/4/5 319/4/5 327/4/5
f 331/4/5 327/4/5 330/4/5
f 332/4/5 329/4/5 328/4/5
f 332/4/5 328/4/5 320/4/5
f 333/4/5 321/4/5 329/4/5
f 333/4/5 329/4/5 332/4/5
f 338/4/5 335/4/5 334/4/5
f 339/4/5 335/4/5 338/4/5
f 340/4/5 337/4/5 336/4/5
f 341/4/5 337/4/5 340/4/5
f 342/4/5 338/4/5 334/4/5
f 343/4/5 335/4/5 339/4/5
f 344/4/5 340/4/5 336/4/5
f 345/4/5 337/4/5 341/4/5
f 346/4/5 342/4/5 334/4/5
f 346/4/5 343/4/5 342/4/5
f 347/4/5 335/4/5 343/4/5
f 347/4/5 343/4/5 346/4/5
f 348/4/5 345/4/5 344/4/5
f 348/4/5 344/4/5 336/4/5
f 349/4/5 337/4/5 345/4/5
f 349/4/5 345/4/5 348/4/5
f 354/4/5 351/4/5 350/4/5
f 355/4/5 351/4/5 354/4/5
f 356/4/5 353/4/5 352/4/5
f 357/4/5 353/4/5 356/4/5
f 358/4/5 354/4/5 350/4/5
f 359/4/5 351/4/5 355/4/5
f 360/4/5 356/4/5 352/4/5
f 361/4/5 353/4/5 357/4/5
f 362/4/5 358/4/5 350/4/5
f 362/4/5 359/4/5 358/4/5
f 363/4/5 351/4/5 359/4/5
f 363/4/5 359/4/5 362/4/5
f 364/4/5 361/4/5 360/4/5
f 364/4/5 360/4/5 352/4/5
f 365/4/5 353/4/5 361/4/5
f 365/4/5 361/4/5 364/4/5
f 368/3/5 367/3/5 366/3/5
f 369/3/5 367/3/5 368/3/5
f 370/3/5 367/3/5 369/3/5
f 371/3/5 367/3/5 370/3/5
f 372/3/5 368/3/5 366/3/5
f 373/3/5 370/3/5 369/3/5
f 374/3/5 370/3/5 373/3/5
f 375/3/5 367/3/5 371/3/5
f 376/3/5 374/3/5 373/3/5
f 376/3/5 375/3/5 374/3/5
f 376/3/5 372/3/5 366/3/5
f 376/3/5 373/3/5 372/3/5
f 377/3/5 375/3/5 376/3/5
f 378/3/5 375/3/5 377/3/5
f 379/3/5 367/3/5 375/3/5
f 379/3/5 375/3/5 378/3/5
f 380/3/5 376/3/5 366/3/5
f 381/3/5 378/3/5 377/3/5
f 382/3/5 378/3/5 381/3/5
f 383/3/5 367/3/5 379/3/5
f 384/3/5 382/3/5 381/3/5
f 384/3/5 383/3/5 382/3/5
f 384/3/5 381/3/5 380/3/5
f 385/3/5 383/3/5 384/3/5
f 386/3/5 380/3/5 366/3/5
f 386/3/5 384/3/5 380/3/5
f 387/3/5 384/3/5 386/3/5
f 388/3/5 383/3/5 385/3/5
f 389/3/5 367/3/5 383/3/5
f 389/3/5 383/3/5 388/3/5
f 390/3/5 384/3/5 387/3/5
f 391/3/5 388/3/5 385/3/5
f 392/3/5 386/3/5 366/3/5
f 393/3/5 390/3/5 387/3/5
f 393/3/5 391/3/5 390/3/5
f 394/3/5 388/3/5 391/3/5
f 394/3/5 391/3/5 393/3/5
f 395/3/5 367/3/5 389/3/5
f 396/3/5 394/3/5 393/3/5
f 396/3/5 395/3/5 394/3/5
f 396/3/5 392/3/5 366/3/5
f 396/3/5 393/3/5 392/3/5
f 397/3/5 367/3/5 395/3/5
f 397/3/5 395/3/5 396/3/5
f 398/1/6 399/1/6 400/1/6
f 400/1/6 399/1/6 401/1/6
f 398/1/6 400/1/6 402/1/6
f 400/2/6 401/2/6 403/2/6
f 402/1/6 400/1/6 403/1/6
f 401/1/6 399/1/6 404/1/6
f 403/2/6 401/2/6 404/2/6
f 398/1/6 402/1/6 405/1/6
f 404/1/6 399/1/6 406/1/6
f 398/1/6 405/1/6 407/1/6
f 405/1/6 406/1/6 407/1/6
f 406/1/6 399/1/6 408/1/6
f 407/1/6 406/1/6 408/1/6
f 409/3/6 410/3/6 411/3/6
f 411/3/6 410/3/6 412/3/6
