# MagicaVoxel @ Ephtracy

# group
o 

# material
mtllib 114-1.mtl
usemtl palette

# normals
vn -1 0 0
vn 1 0 0
vn 0 0 1
vn 0 0 -1
vn 0 -1 0
vn 0 1 0

# texcoords
vt 0.990234 0.5
vt 0.994141 0.5

# verts
v -4.8 5.2 -1.7
v -4.8 5.2 -1.8
v -4.8 6.2 -1.7
v -4.8 6.2 -1.8
v -4.7 5.2 -1.6
v -4.7 5.2 -1.7
v -4.7 5.3 -1.8
v -4.7 5.3 -2
v -4.7 6.1 -1.8
v -4.7 6.1 -2
v -4.7 6.2 -1.6
v -4.7 6.2 -1.7
v -4.6 5.2 -1.8
v -4.6 5.2 -1.9
v -4.6 5.3 -1.8
v -4.6 5.3 -1.9
v -4.6 6.1 -1.8
v -4.6 6.1 -1.9
v -4.6 6.2 -1.8
v -4.6 6.2 -1.9
v -4.5 5.2 -1.9
v -4.5 5.2 -2
v -4.5 5.3 -1.9
v -4.5 5.3 -2
v -4.5 5.3 -2.1
v -4.5 6.1 -1.9
v -4.5 6.1 -2
v -4.5 6.1 -2.1
v -4.5 6.2 -1.9
v -4.5 6.2 -2
v -4.3 5.2 -2
v -4.3 5.2 -2.1
v -4.3 5.3 -2
v -4.3 5.3 -2.1
v -4.3 5.3 -2.2
v -4.3 6.1 -2
v -4.3 6.1 -2.1
v -4.3 6.1 -2.2
v -4.3 6.2 -2
v -4.3 6.2 -2.1
v -4.2 5.2 -2.1
v -4.2 5.2 -2.2
v -4.2 5.3 -2.1
v -4.2 5.3 -2.2
v -4.2 5.3 -2.3
v -4.2 6.1 -2.1
v -4.2 6.1 -2.2
v -4.2 6.1 -2.3
v -4.2 6.2 -2.1
v -4.2 6.2 -2.2
v -4 5.2 -2.2
v -4 5.2 -2.3
v -4 5.3 -2.2
v -4 5.3 -2.3
v -4 5.3 -2.4
v -4 6.1 -2.2
v -4 6.1 -2.3
v -4 6.1 -2.4
v -4 6.2 -2.1
v -4 6.2 -2.2
v -4 6.3 -2.1
v -4 6.3 -2.3
v -3.9 5.3 -2.4
v -3.9 5.3 -2.5
v -3.9 6.1 -2.4
v -3.9 6.1 -2.5
v -3.8 5.2 -2.3
v -3.8 5.2 -2.4
v -3.8 5.3 -2.3
v -3.8 5.3 -2.4
v -3.8 6.1 -2.3
v -3.8 6.1 -2.4
v -3.8 6.2 -2.3
v -3.8 6.2 -2.4
v -3.7 5.2 -2.4
v -3.7 5.2 -2.5
v -3.7 5.3 -2.4
v -3.7 5.3 -2.5
v -3.7 5.3 -2.6
v -3.7 6.1 -2.4
v -3.7 6.1 -2.5
v -3.7 6.1 -2.6
v -3.7 6.2 -2.4
v -3.7 6.2 -2.5
v -3.5 5.2 -2.5
v -3.5 5.2 -2.6
v -3.5 5.3 -2.5
v -3.5 5.3 -2.6
v -3.5 5.3 -2.7
v -3.5 6.1 -2.5
v -3.5 6.1 -2.6
v -3.5 6.1 -2.7
v -3.5 6.2 -2.5
v -3.5 6.2 -2.6
v -3.4 5.2 -2.6
v -3.4 5.2 -2.7
v -3.4 5.3 -2.6
v -3.4 5.3 -2.7
v -3.4 5.3 -2.8
v -3.4 6.1 -2.6
v -3.4 6.1 -2.7
v -3.4 6.1 -2.8
v -3.4 6.2 -2.6
v -3.4 6.2 -2.7
v -3.2 5.2 -2.7
v -3.2 5.2 -2.8
v -3.2 5.3 -2.7
v -3.2 5.3 -2.8
v -3.2 6.1 -2.7
v -3.2 6.1 -2.8
v -3.2 6.2 -2.7
v -3.2 6.2 -2.8
v -4.6 5.2 -1.6
v -4.6 5.2 -1.7
v -4.6 5.3 -1.7
v -4.6 6.1 -1.7
v -4.6 6.2 -1.6
v -4.6 6.2 -1.7
v -4.4 5.2 -1.7
v -4.4 5.2 -1.8
v -4.4 5.3 -1.7
v -4.4 5.3 -1.8
v -4.4 6.1 -1.7
v -4.4 6.1 -1.8
v -4.4 6.2 -1.7
v -4.4 6.2 -1.8
v -4.3 5.2 -1.8
v -4.3 5.2 -1.9
v -4.3 5.3 -1.8
v -4.3 5.3 -1.9
v -4.3 6.1 -1.8
v -4.3 6.1 -1.9
v -4.3 6.2 -1.8
v -4.3 6.2 -1.9
v -4.1 5.2 -1.9
v -4.1 5.2 -2
v -4.1 5.3 -1.9
v -4.1 5.3 -2
v -4.1 6.1 -1.9
v -4.1 6.1 -2
v -4.1 6.2 -1.9
v -4.1 6.2 -2
v -3.9 5.2 -2
v -3.9 5.2 -2.1
v -3.9 5.3 -2
v -3.9 5.3 -2.1
v -3.9 6.1 -2
v -3.9 6.1 -2.1
v -3.9 6.2 -2
v -3.9 6.2 -2.1
v -3.8 5.2 -2.1
v -3.8 5.2 -2.2
v -3.8 5.3 -2.1
v -3.8 5.3 -2.2
v -3.8 6.1 -2.1
v -3.8 6.1 -2.2
v -3.8 6.2 -2.2
v -3.8 6.2 -2.3
v -3.8 6.3 -2.1
v -3.8 6.3 -2.3
v -3.6 5.2 -2.2
v -3.6 5.2 -2.3
v -3.6 5.3 -2.2
v -3.6 5.3 -2.3
v -3.6 6.1 -2.2
v -3.6 6.1 -2.3
v -3.6 6.2 -2.2
v -3.6 6.2 -2.3
v -3.5 5.2 -2.3
v -3.5 5.2 -2.4
v -3.5 5.3 -2.3
v -3.5 5.3 -2.4
v -3.5 6.1 -2.3
v -3.5 6.1 -2.4
v -3.5 6.2 -2.3
v -3.5 6.2 -2.4
v -3.3 5.2 -2.4
v -3.3 5.2 -2.5
v -3.3 5.3 -2.4
v -3.3 5.3 -2.5
v -3.3 6.1 -2.4
v -3.3 6.1 -2.5
v -3.3 6.2 -2.4
v -3.3 6.2 -2.5
v -3.1 5.2 -2.5
v -3.1 5.2 -2.6
v -3.1 5.3 -2.5
v -3.1 5.3 -2.6
v -3.1 6.1 -2.5
v -3.1 6.1 -2.6
v -3.1 6.2 -2.5
v -3.1 6.2 -2.6
v -3 5.2 -2.6
v -3 5.2 -2.8
v -3 6.2 -2.6
v -3 6.2 -2.8
v -4.7 5.2 -1.6
v -4.7 6.2 -1.6
v -4.6 5.2 -1.6
v -4.6 6.2 -1.6
v -4.8 5.2 -1.7
v -4.8 6.2 -1.7
v -4.7 5.2 -1.7
v -4.7 6.2 -1.7
v -4.6 5.2 -1.7
v -4.6 5.3 -1.7
v -4.6 6.1 -1.7
v -4.6 6.2 -1.7
v -4.4 5.2 -1.7
v -4.4 5.3 -1.7
v -4.4 6.1 -1.7
v -4.4 6.2 -1.7
v -4.4 5.2 -1.8
v -4.4 5.3 -1.8
v -4.4 6.1 -1.8
v -4.4 6.2 -1.8
v -4.3 5.2 -1.8
v -4.3 5.3 -1.8
v -4.3 6.1 -1.8
v -4.3 6.2 -1.8
v -4.3 5.2 -1.9
v -4.3 5.3 -1.9
v -4.3 6.1 -1.9
v -4.3 6.2 -1.9
v -4.1 5.2 -1.9
v -4.1 5.3 -1.9
v -4.1 6.1 -1.9
v -4.1 6.2 -1.9
v -4.1 5.2 -2
v -4.1 5.3 -2
v -4.1 6.1 -2
v -4.1 6.2 -2
v -3.9 5.2 -2
v -3.9 5.3 -2
v -3.9 6.1 -2
v -3.9 6.2 -2
v -4 6.2 -2.1
v -4 6.3 -2.1
v -3.9 5.2 -2.1
v -3.9 5.3 -2.1
v -3.9 6.1 -2.1
v -3.9 6.2 -2.1
v -3.8 5.2 -2.1
v -3.8 5.3 -2.1
v -3.8 6.1 -2.1
v -3.8 6.3 -2.1
v -3.8 5.2 -2.2
v -3.8 5.3 -2.2
v -3.8 6.1 -2.2
v -3.8 6.2 -2.2
v -3.6 5.2 -2.2
v -3.6 5.3 -2.2
v -3.6 6.1 -2.2
v -3.6 6.2 -2.2
v -3.6 5.2 -2.3
v -3.6 5.3 -2.3
v -3.6 6.1 -2.3
v -3.6 6.2 -2.3
v -3.5 5.2 -2.3
v -3.5 5.3 -2.3
v -3.5 6.1 -2.3
v -3.5 6.2 -2.3
v -3.5 5.2 -2.4
v -3.5 5.3 -2.4
v -3.5 6.1 -2.4
v -3.5 6.2 -2.4
v -3.3 5.2 -2.4
v -3.3 5.3 -2.4
v -3.3 6.1 -2.4
v -3.3 6.2 -2.4
v -3.3 5.2 -2.5
v -3.3 5.3 -2.5
v -3.3 6.1 -2.5
v -3.3 6.2 -2.5
v -3.1 5.2 -2.5
v -3.1 5.3 -2.5
v -3.1 6.1 -2.5
v -3.1 6.2 -2.5
v -3.1 5.2 -2.6
v -3.1 5.3 -2.6
v -3.1 6.1 -2.6
v -3.1 6.2 -2.6
v -3 5.2 -2.6
v -3 6.2 -2.6
v -4.8 5.2 -1.8
v -4.8 6.2 -1.8
v -4.7 5.3 -1.8
v -4.7 6.1 -1.8
v -4.6 5.2 -1.8
v -4.6 5.3 -1.8
v -4.6 6.1 -1.8
v -4.6 6.2 -1.8
v -4.6 5.2 -1.9
v -4.6 5.3 -1.9
v -4.6 6.1 -1.9
v -4.6 6.2 -1.9
v -4.5 5.2 -1.9
v -4.5 5.3 -1.9
v -4.5 6.1 -1.9
v -4.5 6.2 -1.9
v -4.7 5.3 -2
v -4.7 6.1 -2
v -4.5 5.2 -2
v -4.5 5.3 -2
v -4.5 6.1 -2
v -4.5 6.2 -2
v -4.3 5.2 -2
v -4.3 5.3 -2
v -4.3 6.1 -2
v -4.3 6.2 -2
v -4.5 5.3 -2.1
v -4.5 6.1 -2.1
v -4.3 5.2 -2.1
v -4.3 5.3 -2.1
v -4.3 6.1 -2.1
v -4.3 6.2 -2.1
v -4.2 5.2 -2.1
v -4.2 5.3 -2.1
v -4.2 6.1 -2.1
v -4.2 6.2 -2.1
v -4.3 5.3 -2.2
v -4.3 6.1 -2.2
v -4.2 5.2 -2.2
v -4.2 5.3 -2.2
v -4.2 6.1 -2.2
v -4.2 6.2 -2.2
v -4 5.2 -2.2
v -4 5.3 -2.2
v -4 6.1 -2.2
v -4 6.2 -2.2
v -4.2 5.3 -2.3
v -4.2 6.1 -2.3
v -4 5.2 -2.3
v -4 5.3 -2.3
v -4 6.1 -2.3
v -4 6.3 -2.3
v -3.8 5.2 -2.3
v -3.8 5.3 -2.3
v -3.8 6.1 -2.3
v -3.8 6.2 -2.3
v -3.8 6.3 -2.3
v -4 5.3 -2.4
v -4 6.1 -2.4
v -3.9 5.3 -2.4
v -3.9 6.1 -2.4
v -3.8 5.2 -2.4
v -3.8 5.3 -2.4
v -3.8 6.1 -2.4
v -3.8 6.2 -2.4
v -3.7 5.2 -2.4
v -3.7 5.3 -2.4
v -3.7 6.1 -2.4
v -3.7 6.2 -2.4
v -3.9 5.3 -2.5
v -3.9 6.1 -2.5
v -3.7 5.2 -2.5
v -3.7 5.3 -2.5
v -3.7 6.1 -2.5
v -3.7 6.2 -2.5
v -3.5 5.2 -2.5
v -3.5 5.3 -2.5
v -3.5 6.1 -2.5
v -3.5 6.2 -2.5
v -3.7 5.3 -2.6
v -3.7 6.1 -2.6
v -3.5 5.2 -2.6
v -3.5 5.3 -2.6
v -3.5 6.1 -2.6
v -3.5 6.2 -2.6
v -3.4 5.2 -2.6
v -3.4 5.3 -2.6
v -3.4 6.1 -2.6
v -3.4 6.2 -2.6
v -3.5 5.3 -2.7
v -3.5 6.1 -2.7
v -3.4 5.2 -2.7
v -3.4 5.3 -2.7
v -3.4 6.1 -2.7
v -3.4 6.2 -2.7
v -3.2 5.2 -2.7
v -3.2 5.3 -2.7
v -3.2 6.1 -2.7
v -3.2 6.2 -2.7
v -3.4 5.3 -2.8
v -3.4 6.1 -2.8
v -3.2 5.2 -2.8
v -3.2 5.3 -2.8
v -3.2 6.1 -2.8
v -3.2 6.2 -2.8
v -3 5.2 -2.8
v -3 6.2 -2.8
v -4.7 5.2 -1.6
v -4.6 5.2 -1.6
v -4.8 5.2 -1.7
v -4.7 5.2 -1.7
v -4.6 5.2 -1.7
v -4.4 5.2 -1.7
v -4.8 5.2 -1.8
v -4.6 5.2 -1.8
v -4.4 5.2 -1.8
v -4.3 5.2 -1.8
v -4.6 5.2 -1.9
v -4.5 5.2 -1.9
v -4.3 5.2 -1.9
v -4.1 5.2 -1.9
v -4.5 5.2 -2
v -4.3 5.2 -2
v -4.1 5.2 -2
v -3.9 5.2 -2
v -4.3 5.2 -2.1
v -4.2 5.2 -2.1
v -3.9 5.2 -2.1
v -3.8 5.2 -2.1
v -4.2 5.2 -2.2
v -4 5.2 -2.2
v -3.8 5.2 -2.2
v -3.6 5.2 -2.2
v -4 5.2 -2.3
v -3.8 5.2 -2.3
v -3.6 5.2 -2.3
v -3.5 5.2 -2.3
v -3.8 5.2 -2.4
v -3.7 5.2 -2.4
v -3.5 5.2 -2.4
v -3.3 5.2 -2.4
v -3.7 5.2 -2.5
v -3.5 5.2 -2.5
v -3.3 5.2 -2.5
v -3.1 5.2 -2.5
v -3.5 5.2 -2.6
v -3.4 5.2 -2.6
v -3.1 5.2 -2.6
v -3 5.2 -2.6
v -3.4 5.2 -2.7
v -3.2 5.2 -2.7
v -3.2 5.2 -2.8
v -3 5.2 -2.8
v -4.7 5.3 -1.8
v -4.6 5.3 -1.8
v -4.6 5.3 -1.9
v -4.5 5.3 -1.9
v -4.7 5.3 -2
v -4.5 5.3 -2
v -4.3 5.3 -2
v -4.5 5.3 -2.1
v -4.3 5.3 -2.1
v -4.2 5.3 -2.1
v -4.3 5.3 -2.2
v -4.2 5.3 -2.2
v -4 5.3 -2.2
v -4.2 5.3 -2.3
v -4 5.3 -2.3
v -3.8 5.3 -2.3
v -4 5.3 -2.4
v -3.9 5.3 -2.4
v -3.8 5.3 -2.4
v -3.7 5.3 -2.4
v -3.9 5.3 -2.5
v -3.7 5.3 -2.5
v -3.5 5.3 -2.5
v -3.7 5.3 -2.6
v -3.5 5.3 -2.6
v -3.4 5.3 -2.6
v -3.5 5.3 -2.7
v -3.4 5.3 -2.7
v -3.2 5.3 -2.7
v -3.4 5.3 -2.8
v -3.2 5.3 -2.8
v -4.7 6.1 -1.8
v -4.6 6.1 -1.8
v -4.6 6.1 -1.9
v -4.5 6.1 -1.9
v -4.7 6.1 -2
v -4.5 6.1 -2
v -4.3 6.1 -2
v -4.5 6.1 -2.1
v -4.3 6.1 -2.1
v -4.2 6.1 -2.1
v -4.3 6.1 -2.2
v -4.2 6.1 -2.2
v -4 6.1 -2.2
v -4.2 6.1 -2.3
v -4 6.1 -2.3
v -3.8 6.1 -2.3
v -4 6.1 -2.4
v -3.9 6.1 -2.4
v -3.8 6.1 -2.4
v -3.7 6.1 -2.4
v -3.9 6.1 -2.5
v -3.7 6.1 -2.5
v -3.5 6.1 -2.5
v -3.7 6.1 -2.6
v -3.5 6.1 -2.6
v -3.4 6.1 -2.6
v -3.5 6.1 -2.7
v -3.4 6.1 -2.7
v -3.2 6.1 -2.7
v -3.4 6.1 -2.8
v -3.2 6.1 -2.8
v -4.7 6.2 -1.6
v -4.6 6.2 -1.6
v -4.8 6.2 -1.7
v -4.7 6.2 -1.7
v -4.6 6.2 -1.7
v -4.4 6.2 -1.7
v -4.8 6.2 -1.8
v -4.6 6.2 -1.8
v -4.4 6.2 -1.8
v -4.3 6.2 -1.8
v -4.6 6.2 -1.9
v -4.5 6.2 -1.9
v -4.3 6.2 -1.9
v -4.1 6.2 -1.9
v -4.5 6.2 -2
v -4.3 6.2 -2
v -4.1 6.2 -2
v -3.9 6.2 -2
v -4.3 6.2 -2.1
v -4.2 6.2 -2.1
v -4 6.2 -2.1
v -3.9 6.2 -2.1
v -4.2 6.2 -2.2
v -4 6.2 -2.2
v -3.8 6.2 -2.2
v -3.6 6.2 -2.2
v -3.8 6.2 -2.3
v -3.6 6.2 -2.3
v -3.5 6.2 -2.3
v -3.8 6.2 -2.4
v -3.7 6.2 -2.4
v -3.5 6.2 -2.4
v -3.3 6.2 -2.4
v -3.7 6.2 -2.5
v -3.5 6.2 -2.5
v -3.3 6.2 -2.5
v -3.1 6.2 -2.5
v -3.5 6.2 -2.6
v -3.4 6.2 -2.6
v -3.1 6.2 -2.6
v -3 6.2 -2.6
v -3.4 6.2 -2.7
v -3.2 6.2 -2.7
v -3.2 6.2 -2.8
v -3 6.2 -2.8
v -4 6.3 -2.1
v -3.8 6.3 -2.1
v -4 6.3 -2.3
v -3.8 6.3 -2.3

# faces
f 3/2/1 2/2/1 1/2/1
f 4/2/1 2/2/1 3/2/1
f 9/2/1 8/2/1 7/2/1
f 10/2/1 8/2/1 9/2/1
f 11/2/1 6/2/1 5/2/1
f 12/2/1 6/2/1 11/2/1
f 15/2/1 14/2/1 13/2/1
f 16/2/1 14/2/1 15/2/1
f 19/2/1 18/2/1 17/2/1
f 20/2/1 18/2/1 19/2/1
f 23/2/1 22/2/1 21/2/1
f 24/2/1 22/2/1 23/2/1
f 27/2/1 25/2/1 24/2/1
f 28/2/1 25/2/1 27/2/1
f 29/2/1 27/2/1 26/2/1
f 30/2/1 27/2/1 29/2/1
f 33/2/1 32/2/1 31/2/1
f 34/2/1 32/2/1 33/2/1
f 37/2/1 35/2/1 34/2/1
f 38/2/1 35/2/1 37/2/1
f 39/2/1 37/2/1 36/2/1
f 40/2/1 37/2/1 39/2/1
f 43/2/1 42/2/1 41/2/1
f 44/2/1 42/2/1 43/2/1
f 47/2/1 45/2/1 44/2/1
f 48/2/1 45/2/1 47/2/1
f 49/2/1 47/2/1 46/2/1
f 50/2/1 47/2/1 49/2/1
f 53/2/1 52/2/1 51/2/1
f 54/2/1 52/2/1 53/2/1
f 57/2/1 55/2/1 54/2/1
f 58/2/1 55/2/1 57/2/1
f 60/2/1 57/2/1 56/2/1
f 61/2/1 60/2/1 59/2/1
f 62/2/1 57/2/1 60/2/1
f 62/2/1 60/2/1 61/2/1
f 65/2/1 64/2/1 63/2/1
f 66/2/1 64/2/1 65/2/1
f 69/2/1 68/2/1 67/2/1
f 70/2/1 68/2/1 69/2/1
f 73/2/1 72/2/1 71/2/1
f 74/2/1 72/2/1 73/2/1
f 77/2/1 76/2/1 75/2/1
f 78/2/1 76/2/1 77/2/1
f 81/2/1 79/2/1 78/2/1
f 82/2/1 79/2/1 81/2/1
f 83/2/1 81/2/1 80/2/1
f 84/2/1 81/2/1 83/2/1
f 87/2/1 86/2/1 85/2/1
f 88/2/1 86/2/1 87/2/1
f 91/2/1 89/2/1 88/2/1
f 92/2/1 89/2/1 91/2/1
f 93/2/1 91/2/1 90/2/1
f 94/2/1 91/2/1 93/2/1
f 97/2/1 96/2/1 95/2/1
f 98/2/1 96/2/1 97/2/1
f 101/2/1 99/2/1 98/2/1
f 102/2/1 99/2/1 101/2/1
f 103/2/1 101/2/1 100/2/1
f 104/2/1 101/2/1 103/2/1
f 107/2/1 106/2/1 105/2/1
f 108/2/1 106/2/1 107/2/1
f 111/2/1 110/2/1 109/2/1
f 112/2/1 110/2/1 111/2/1
f 113/2/2 114/2/2 115/2/2
f 113/2/2 115/2/2 116/2/2
f 113/2/2 116/2/2 117/2/2
f 117/2/2 116/2/2 118/2/2
f 119/2/2 120/2/2 121/2/2
f 121/2/2 120/2/2 122/2/2
f 121/1/2 122/1/2 123/1/2
f 123/1/2 122/1/2 124/1/2
f 123/2/2 124/2/2 125/2/2
f 125/2/2 124/2/2 126/2/2
f 127/2/2 128/2/2 129/2/2
f 129/2/2 128/2/2 130/2/2
f 129/1/2 130/1/2 131/1/2
f 131/1/2 130/1/2 132/1/2
f 131/2/2 132/2/2 133/2/2
f 133/2/2 132/2/2 134/2/2
f 135/2/2 136/2/2 137/2/2
f 137/2/2 136/2/2 138/2/2
f 137/1/2 138/1/2 139/1/2
f 139/1/2 138/1/2 140/1/2
f 139/2/2 140/2/2 141/2/2
f 141/2/2 140/2/2 142/2/2
f 143/2/2 144/2/2 145/2/2
f 145/2/2 144/2/2 146/2/2
f 145/1/2 146/1/2 147/1/2
f 147/1/2 146/1/2 148/1/2
f 147/2/2 148/2/2 149/2/2
f 149/2/2 148/2/2 150/2/2
f 151/2/2 152/2/2 153/2/2
f 153/2/2 152/2/2 154/2/2
f 153/1/2 154/1/2 155/1/2
f 155/1/2 154/1/2 156/1/2
f 155/2/2 156/2/2 157/2/2
f 155/2/2 157/2/2 159/2/2
f 157/2/2 158/2/2 159/2/2
f 159/2/2 158/2/2 160/2/2
f 161/2/2 162/2/2 163/2/2
f 163/2/2 162/2/2 164/2/2
f 163/1/2 164/1/2 165/1/2
f 165/1/2 164/1/2 166/1/2
f 165/2/2 166/2/2 167/2/2
f 167/2/2 166/2/2 168/2/2
f 169/2/2 170/2/2 171/2/2
f 171/2/2 170/2/2 172/2/2
f 171/1/2 172/1/2 173/1/2
f 173/1/2 172/1/2 174/1/2
f 173/2/2 174/2/2 175/2/2
f 175/2/2 174/2/2 176/2/2
f 177/2/2 178/2/2 179/2/2
f 179/2/2 178/2/2 180/2/2
f 179/1/2 180/1/2 181/1/2
f 181/1/2 180/1/2 182/1/2
f 181/2/2 182/2/2 183/2/2
f 183/2/2 182/2/2 184/2/2
f 185/2/2 186/2/2 187/2/2
f 187/2/2 186/2/2 188/2/2
f 187/1/2 188/1/2 189/1/2
f 189/1/2 188/1/2 190/1/2
f 189/2/2 190/2/2 191/2/2
f 191/2/2 190/2/2 192/2/2
f 193/2/2 194/2/2 195/2/2
f 195/2/2 194/2/2 196/2/2
f 199/2/3 198/2/3 197/2/3
f 200/2/3 198/2/3 199/2/3
f 203/2/3 202/2/3 201/2/3
f 204/2/3 202/2/3 203/2/3
f 209/2/3 206/2/3 205/2/3
f 210/1/3 207/1/3 206/1/3
f 210/2/3 206/2/3 209/2/3
f 211/2/3 208/2/3 207/2/3
f 211/1/3 207/1/3 210/1/3
f 212/2/3 208/2/3 211/2/3
f 217/2/3 214/2/3 213/2/3
f 218/1/3 215/1/3 214/1/3
f 218/2/3 214/2/3 217/2/3
f 219/2/3 216/2/3 215/2/3
f 219/1/3 215/1/3 218/1/3
f 220/2/3 216/2/3 219/2/3
f 225/2/3 222/2/3 221/2/3
f 226/1/3 223/1/3 222/1/3
f 226/2/3 222/2/3 225/2/3
f 227/2/3 224/2/3 223/2/3
f 227/1/3 223/1/3 226/1/3
f 228/2/3 224/2/3 227/2/3
f 233/2/3 230/2/3 229/2/3
f 234/1/3 231/1/3 230/1/3
f 234/2/3 230/2/3 233/2/3
f 235/2/3 232/2/3 231/2/3
f 235/1/3 231/1/3 234/1/3
f 236/2/3 232/2/3 235/2/3
f 242/2/3 238/2/3 237/2/3
f 243/2/3 240/2/3 239/2/3
f 244/1/3 241/1/3 240/1/3
f 244/2/3 240/2/3 243/2/3
f 245/2/3 242/2/3 241/2/3
f 245/1/3 241/1/3 244/1/3
f 246/2/3 238/2/3 242/2/3
f 246/2/3 242/2/3 245/2/3
f 251/2/3 248/2/3 247/2/3
f 252/1/3 249/1/3 248/1/3
f 252/2/3 248/2/3 251/2/3
f 253/2/3 250/2/3 249/2/3
f 253/1/3 249/1/3 252/1/3
f 254/2/3 250/2/3 253/2/3
f 259/2/3 256/2/3 255/2/3
f 260/1/3 257/1/3 256/1/3
f 260/2/3 256/2/3 259/2/3
f 261/2/3 258/2/3 257/2/3
f 261/1/3 257/1/3 260/1/3
f 262/2/3 258/2/3 261/2/3
f 267/2/3 264/2/3 263/2/3
f 268/1/3 265/1/3 264/1/3
f 268/2/3 264/2/3 267/2/3
f 269/2/3 266/2/3 265/2/3
f 269/1/3 265/1/3 268/1/3
f 270/2/3 266/2/3 269/2/3
f 275/2/3 272/2/3 271/2/3
f 276/1/3 273/1/3 272/1/3
f 276/2/3 272/2/3 275/2/3
f 277/2/3 274/2/3 273/2/3
f 277/1/3 273/1/3 276/1/3
f 278/2/3 274/2/3 277/2/3
f 283/2/3 280/2/3 279/2/3
f 283/2/3 282/2/3 281/2/3
f 283/2/3 281/2/3 280/2/3
f 284/2/3 282/2/3 283/2/3
f 285/2/4 286/2/4 287/2/4
f 287/2/4 286/2/4 288/2/4
f 285/2/4 287/2/4 289/2/4
f 289/2/4 287/2/4 290/2/4
f 288/2/4 286/2/4 291/2/4
f 291/2/4 286/2/4 292/2/4
f 293/2/4 294/2/4 297/2/4
f 297/2/4 294/2/4 298/2/4
f 295/2/4 296/2/4 299/2/4
f 299/2/4 296/2/4 300/2/4
f 301/2/4 302/2/4 304/2/4
f 304/2/4 302/2/4 305/2/4
f 303/2/4 304/2/4 307/2/4
f 307/2/4 304/2/4 308/2/4
f 305/2/4 306/2/4 309/2/4
f 309/2/4 306/2/4 310/2/4
f 311/2/4 312/2/4 314/2/4
f 314/2/4 312/2/4 315/2/4
f 313/2/4 314/2/4 317/2/4
f 317/2/4 314/2/4 318/2/4
f 315/2/4 316/2/4 319/2/4
f 319/2/4 316/2/4 320/2/4
f 321/2/4 322/2/4 324/2/4
f 324/2/4 322/2/4 325/2/4
f 323/2/4 324/2/4 327/2/4
f 327/2/4 324/2/4 328/2/4
f 325/2/4 326/2/4 329/2/4
f 329/2/4 326/2/4 330/2/4
f 331/2/4 332/2/4 334/2/4
f 334/2/4 332/2/4 335/2/4
f 333/2/4 334/2/4 337/2/4
f 337/2/4 334/2/4 338/2/4
f 335/2/4 336/2/4 339/2/4
f 339/2/4 336/2/4 340/2/4
f 340/2/4 336/2/4 341/2/4
f 342/2/4 343/2/4 344/2/4
f 344/2/4 343/2/4 345/2/4
f 346/2/4 347/2/4 350/2/4
f 350/2/4 347/2/4 351/2/4
f 348/2/4 349/2/4 352/2/4
f 352/2/4 349/2/4 353/2/4
f 354/2/4 355/2/4 357/2/4
f 357/2/4 355/2/4 358/2/4
f 356/2/4 357/2/4 360/2/4
f 360/2/4 357/2/4 361/2/4
f 358/2/4 359/2/4 362/2/4
f 362/2/4 359/2/4 363/2/4
f 364/2/4 365/2/4 367/2/4
f 367/2/4 365/2/4 368/2/4
f 366/2/4 367/2/4 370/2/4
f 370/2/4 367/2/4 371/2/4
f 368/2/4 369/2/4 372/2/4
f 372/2/4 369/2/4 373/2/4
f 374/2/4 375/2/4 377/2/4
f 377/2/4 375/2/4 378/2/4
f 376/2/4 377/2/4 380/2/4
f 380/2/4 377/2/4 381/2/4
f 378/2/4 379/2/4 382/2/4
f 382/2/4 379/2/4 383/2/4
f 384/2/4 385/2/4 387/2/4
f 387/2/4 385/2/4 388/2/4
f 386/2/4 387/2/4 390/2/4
f 388/2/4 389/2/4 390/2/4
f 387/2/4 388/2/4 390/2/4
f 390/2/4 389/2/4 391/2/4
f 395/2/5 393/2/5 392/2/5
f 396/2/5 393/2/5 395/2/5
f 398/2/5 395/2/5 394/2/5
f 398/2/5 397/2/5 396/2/5
f 398/2/5 396/2/5 395/2/5
f 399/2/5 397/2/5 398/2/5
f 400/2/5 397/2/5 399/2/5
f 402/2/5 401/2/5 400/2/5
f 402/2/5 400/2/5 399/2/5
f 403/2/5 401/2/5 402/2/5
f 404/2/5 401/2/5 403/2/5
f 406/2/5 405/2/5 404/2/5
f 406/2/5 404/2/5 403/2/5
f 407/2/5 405/2/5 406/2/5
f 408/2/5 405/2/5 407/2/5
f 410/2/5 409/2/5 408/2/5
f 410/2/5 408/2/5 407/2/5
f 411/2/5 409/2/5 410/2/5
f 412/2/5 409/2/5 411/2/5
f 414/2/5 413/2/5 412/2/5
f 414/2/5 412/2/5 411/2/5
f 415/2/5 413/2/5 414/2/5
f 416/2/5 413/2/5 415/2/5
f 418/2/5 417/2/5 416/2/5
f 418/2/5 416/2/5 415/2/5
f 419/2/5 417/2/5 418/2/5
f 420/2/5 417/2/5 419/2/5
f 422/2/5 421/2/5 420/2/5
f 422/2/5 420/2/5 419/2/5
f 423/2/5 421/2/5 422/2/5
f 424/2/5 421/2/5 423/2/5
f 426/2/5 425/2/5 424/2/5
f 426/2/5 424/2/5 423/2/5
f 427/2/5 425/2/5 426/2/5
f 428/2/5 425/2/5 427/2/5
f 430/2/5 429/2/5 428/2/5
f 430/2/5 428/2/5 427/2/5
f 431/2/5 429/2/5 430/2/5
f 432/2/5 429/2/5 431/2/5
f 434/2/5 433/2/5 432/2/5
f 434/2/5 432/2/5 431/2/5
f 435/2/5 433/2/5 434/2/5
f 436/2/5 433/2/5 435/2/5
f 437/2/5 433/2/5 436/2/5
f 440/2/5 439/2/5 438/2/5
f 442/2/5 440/2/5 438/2/5
f 442/2/5 441/2/5 440/2/5
f 443/2/5 441/2/5 442/2/5
f 445/2/5 444/2/5 443/2/5
f 446/2/5 444/2/5 445/2/5
f 448/2/5 447/2/5 446/2/5
f 449/2/5 447/2/5 448/2/5
f 451/2/5 450/2/5 449/2/5
f 452/2/5 450/2/5 451/2/5
f 454/2/5 453/2/5 452/2/5
f 455/2/5 453/2/5 454/2/5
f 456/2/5 453/2/5 455/2/5
f 458/2/5 457/2/5 456/2/5
f 458/2/5 456/2/5 455/2/5
f 459/2/5 457/2/5 458/2/5
f 461/2/5 460/2/5 459/2/5
f 462/2/5 460/2/5 461/2/5
f 464/2/5 463/2/5 462/2/5
f 465/2/5 463/2/5 464/2/5
f 467/2/5 466/2/5 465/2/5
f 468/2/5 466/2/5 467/2/5
f 469/2/6 470/2/6 471/2/6
f 469/2/6 471/2/6 473/2/6
f 471/2/6 472/2/6 473/2/6
f 473/2/6 472/2/6 474/2/6
f 474/2/6 475/2/6 476/2/6
f 476/2/6 475/2/6 477/2/6
f 477/2/6 478/2/6 479/2/6
f 479/2/6 478/2/6 480/2/6
f 480/2/6 481/2/6 482/2/6
f 482/2/6 481/2/6 483/2/6
f 483/2/6 484/2/6 485/2/6
f 485/2/6 484/2/6 486/2/6
f 486/2/6 484/2/6 487/2/6
f 487/2/6 488/2/6 489/2/6
f 486/2/6 487/2/6 489/2/6
f 489/2/6 488/2/6 490/2/6
f 490/2/6 491/2/6 492/2/6
f 492/2/6 491/2/6 493/2/6
f 493/2/6 494/2/6 495/2/6
f 495/2/6 494/2/6 496/2/6
f 496/2/6 497/2/6 498/2/6
f 498/2/6 497/2/6 499/2/6
f 500/2/6 501/2/6 503/2/6
f 503/2/6 501/2/6 504/2/6
f 502/2/6 503/2/6 506/2/6
f 504/2/6 505/2/6 506/2/6
f 503/2/6 504/2/6 506/2/6
f 506/2/6 505/2/6 507/2/6
f 507/2/6 505/2/6 508/2/6
f 508/2/6 509/2/6 510/2/6
f 507/2/6 508/2/6 510/2/6
f 510/2/6 509/2/6 511/2/6
f 511/2/6 509/2/6 512/2/6
f 512/2/6 513/2/6 514/2/6
f 511/2/6 512/2/6 514/2/6
f 514/2/6 513/2/6 515/2/6
f 515/2/6 513/2/6 516/2/6
f 516/2/6 517/2/6 518/2/6
f 515/2/6 516/2/6 518/2/6
f 518/2/6 517/2/6 519/2/6
f 519/2/6 517/2/6 520/2/6
f 520/2/6 517/2/6 521/2/6
f 519/2/6 520/2/6 522/2/6
f 522/2/6 520/2/6 523/2/6
f 524/2/6 525/2/6 526/2/6
f 526/2/6 525/2/6 527/2/6
f 526/2/6 527/2/6 529/2/6
f 527/2/6 528/2/6 529/2/6
f 529/2/6 528/2/6 530/2/6
f 530/2/6 528/2/6 531/2/6
f 531/2/6 532/2/6 533/2/6
f 530/2/6 531/2/6 533/2/6
f 533/2/6 532/2/6 534/2/6
f 534/2/6 532/2/6 535/2/6
f 535/2/6 536/2/6 537/2/6
f 534/2/6 535/2/6 537/2/6
f 537/2/6 536/2/6 538/2/6
f 538/2/6 536/2/6 539/2/6
f 539/2/6 540/2/6 541/2/6
f 538/2/6 539/2/6 541/2/6
f 541/2/6 540/2/6 542/2/6
f 542/2/6 540/2/6 543/2/6
f 543/2/6 540/2/6 544/2/6
f 545/2/6 546/2/6 547/2/6
f 547/2/6 546/2/6 548/2/6
