# MagicaVoxel @ Ephtracy

# group
o 

# material
mtllib class131_ver2-72.mtl
usemtl palette

# normals
vn -1 0 0
vn 1 0 0
vn 0 0 1
vn 0 0 -1
vn 0 -1 0
vn 0 1 0

# texcoords
vt 0.00585938 0.5
vt 0.232422 0.5
vt 0.982422 0.5

# verts
v 0.6 0.1 3.5
v 0.6 0.1 3.4
v 0.6 0.1 2.9
v 0.6 0.1 2.8
v 0.6 0.2 3.5
v 0.6 0.2 3.4
v 0.6 0.2 2.9
v 0.6 0.2 2.8
v 0.6 0.9 3.6
v 0.6 0.9 3.5
v 0.6 0.9 2.8
v 0.6 0.9 2.7
v 0.6 1 3.7
v 0.6 1 3.6
v 0.6 1 3.5
v 0.6 1 2.8
v 0.6 1 2.7
v 0.6 1 2.6
v 0.6 1.1 3.7
v 0.6 1.1 2.6
v 0.7 0.2 3.5
v 0.7 0.2 3.4
v 0.7 0.2 2.9
v 0.7 0.2 2.8
v 0.7 0.3 3.4
v 0.7 0.3 2.9
v 0.7 0.7 3.4
v 0.7 0.7 2.9
v 0.7 0.8 3.4
v 0.7 0.8 2.9
v 0.7 0.9 3.5
v 0.7 0.9 2.8
v 0.7 1 3.5
v 0.7 1 3.4
v 0.7 1 2.9
v 0.7 1 2.8
v 1.1 0.2 3.5
v 1.1 0.2 3.4
v 1.1 0.2 2.9
v 1.1 0.2 2.8
v 1.1 0.9 3.5
v 1.1 0.9 2.8
v 1.1 1 3.5
v 1.1 1 3.4
v 1.1 1 2.9
v 1.1 1 2.8
v 0.8 0.2 3.4
v 0.8 0.2 2.9
v 0.8 0.3 3.4
v 0.8 0.3 2.9
v 0.8 0.7 3.4
v 0.8 0.7 2.9
v 0.8 0.8 3.4
v 0.8 0.8 2.9
v 0.8 1 3.4
v 0.8 1 2.9
v 0.9 0.2 3.5
v 0.9 0.2 3.4
v 0.9 0.2 2.9
v 0.9 0.2 2.8
v 0.9 0.9 3.5
v 0.9 0.9 2.8
v 0.9 1 3.5
v 0.9 1 3.4
v 0.9 1 2.9
v 0.9 1 2.8
v 1.2 0.2 3.5
v 1.2 0.2 3.4
v 1.2 0.2 2.9
v 1.2 0.2 2.8
v 1.2 0.9 3.5
v 1.2 0.9 2.8
v 1.2 1 3.5
v 1.2 1 3.4
v 1.2 1 2.9
v 1.2 1 2.8
v 1.3 0.9 3.6
v 1.3 0.9 3.5
v 1.3 0.9 2.8
v 1.3 0.9 2.7
v 1.3 1 3.7
v 1.3 1 3.6
v 1.3 1 3.5
v 1.3 1 2.8
v 1.3 1 2.7
v 1.3 1 2.6
v 1.3 1.1 3.7
v 1.3 1.1 2.6
v 1.4 0.1 3.5
v 1.4 0.1 3.4
v 1.4 0.1 2.9
v 1.4 0.1 2.8
v 1.4 0.2 3.5
v 1.4 0.2 3.4
v 1.4 0.2 2.9
v 1.4 0.2 2.8
v 0.6 1 3.7
v 0.6 1.1 3.7
v 1.3 1 3.7
v 1.3 1.1 3.7
v 0.6 0.9 3.6
v 0.6 1 3.6
v 1.3 0.9 3.6
v 1.3 1 3.6
v 0.6 0.1 3.5
v 0.6 0.2 3.5
v 0.7 0.2 3.5
v 0.7 0.9 3.5
v 0.9 0.2 3.5
v 0.9 0.9 3.5
v 1.1 0.2 3.5
v 1.1 0.9 3.5
v 1.2 0.2 3.5
v 1.2 0.9 3.5
v 1.4 0.1 3.5
v 1.4 0.2 3.5
v 0.6 0.1 2.9
v 0.6 0.2 2.9
v 0.7 0.2 2.9
v 0.7 0.3 2.9
v 0.7 0.7 2.9
v 0.8 0.2 2.9
v 0.8 0.3 2.9
v 0.8 0.7 2.9
v 0.8 0.8 2.9
v 0.8 1 2.9
v 0.9 0.2 2.9
v 0.9 1 2.9
v 1.1 0.2 2.9
v 1.1 1 2.9
v 1.2 0.2 2.9
v 1.2 1 2.9
v 1.4 0.1 2.9
v 1.4 0.2 2.9
v 0.6 0.9 2.8
v 0.6 1 2.8
v 0.7 0.9 2.8
v 0.7 1 2.8
v 0.9 0.9 2.8
v 0.9 1 2.8
v 1.1 0.9 2.8
v 1.1 1 2.8
v 1.2 0.9 2.8
v 1.2 1 2.8
v 1.3 0.9 2.8
v 1.3 1 2.8
v 0.6 0.9 3.5
v 0.6 1 3.5
v 0.7 0.9 3.5
v 0.7 1 3.5
v 0.9 0.9 3.5
v 0.9 1 3.5
v 1.1 0.9 3.5
v 1.1 1 3.5
v 1.2 0.9 3.5
v 1.2 1 3.5
v 1.3 0.9 3.5
v 1.3 1 3.5
v 0.6 0.1 3.4
v 0.6 0.2 3.4
v 0.7 0.2 3.4
v 0.7 0.3 3.4
v 0.7 0.7 3.4
v 0.8 0.2 3.4
v 0.8 0.3 3.4
v 0.8 0.7 3.4
v 0.8 0.8 3.4
v 0.8 1 3.4
v 0.9 0.2 3.4
v 0.9 1 3.4
v 1.1 0.2 3.4
v 1.1 1 3.4
v 1.2 0.2 3.4
v 1.2 1 3.4
v 1.4 0.1 3.4
v 1.4 0.2 3.4
v 0.6 0.1 2.8
v 0.6 0.2 2.8
v 0.7 0.2 2.8
v 0.7 0.9 2.8
v 0.9 0.2 2.8
v 0.9 0.9 2.8
v 1.1 0.2 2.8
v 1.1 0.9 2.8
v 1.2 0.2 2.8
v 1.2 0.9 2.8
v 1.4 0.1 2.8
v 1.4 0.2 2.8
v 0.6 0.9 2.7
v 0.6 1 2.7
v 1.3 0.9 2.7
v 1.3 1 2.7
v 0.6 1 2.6
v 0.6 1.1 2.6
v 1.3 1 2.6
v 1.3 1.1 2.6
v 0.6 0.1 3.5
v 1.4 0.1 3.5
v 0.6 0.1 3.4
v 1.4 0.1 3.4
v 0.6 0.1 2.9
v 1.4 0.1 2.9
v 0.6 0.1 2.8
v 1.4 0.1 2.8
v 0.7 0.2 3.4
v 0.8 0.2 3.4
v 0.7 0.2 2.9
v 0.8 0.2 2.9
v 0.7 0.7 3.4
v 0.8 0.7 3.4
v 0.7 0.7 2.9
v 0.8 0.7 2.9
v 0.6 0.9 3.6
v 1.3 0.9 3.6
v 0.6 0.9 3.5
v 0.7 0.9 3.5
v 0.9 0.9 3.5
v 1.1 0.9 3.5
v 1.2 0.9 3.5
v 1.3 0.9 3.5
v 0.6 0.9 2.8
v 0.7 0.9 2.8
v 0.9 0.9 2.8
v 1.1 0.9 2.8
v 1.2 0.9 2.8
v 1.3 0.9 2.8
v 0.6 0.9 2.7
v 1.3 0.9 2.7
v 0.6 1 3.7
v 1.3 1 3.7
v 0.6 1 3.6
v 1.3 1 3.6
v 0.6 1 3.5
v 0.7 1 3.5
v 0.9 1 3.5
v 1.1 1 3.5
v 1.2 1 3.5
v 1.3 1 3.5
v 0.7 1 3.4
v 0.8 1 3.4
v 0.9 1 3.4
v 1.1 1 3.4
v 1.2 1 3.4
v 0.7 1 2.9
v 0.8 1 2.9
v 0.9 1 2.9
v 1.1 1 2.9
v 1.2 1 2.9
v 0.6 1 2.8
v 0.7 1 2.8
v 0.9 1 2.8
v 1.1 1 2.8
v 1.2 1 2.8
v 1.3 1 2.8
v 0.6 1 2.7
v 1.3 1 2.7
v 0.6 1 2.6
v 1.3 1 2.6
v 0.6 0.2 3.5
v 0.7 0.2 3.5
v 0.9 0.2 3.5
v 1.1 0.2 3.5
v 1.2 0.2 3.5
v 1.4 0.2 3.5
v 0.6 0.2 3.4
v 0.7 0.2 3.4
v 0.9 0.2 3.4
v 1.1 0.2 3.4
v 1.2 0.2 3.4
v 1.4 0.2 3.4
v 0.6 0.2 2.9
v 0.7 0.2 2.9
v 0.9 0.2 2.9
v 1.1 0.2 2.9
v 1.2 0.2 2.9
v 1.4 0.2 2.9
v 0.6 0.2 2.8
v 0.7 0.2 2.8
v 0.9 0.2 2.8
v 1.1 0.2 2.8
v 1.2 0.2 2.8
v 1.4 0.2 2.8
v 0.7 0.3 3.4
v 0.8 0.3 3.4
v 0.7 0.3 2.9
v 0.8 0.3 2.9
v 0.6 1.1 3.7
v 1.3 1.1 3.7
v 0.6 1.1 2.6
v 1.3 1.1 2.6

# faces
f 5/3/1 2/3/1 1/3/1
f 6/3/1 2/3/1 5/3/1
f 7/3/1 4/3/1 3/3/1
f 8/3/1 4/3/1 7/3/1
f 14/3/1 10/3/1 9/3/1
f 15/3/1 10/3/1 14/3/1
f 16/3/1 12/3/1 11/3/1
f 17/3/1 12/3/1 16/3/1
f 19/1/1 15/1/1 14/1/1
f 19/1/1 18/1/1 17/1/1
f 19/1/1 17/1/1 16/1/1
f 19/1/1 16/1/1 15/1/1
f 19/1/1 14/1/1 13/1/1
f 20/1/1 18/1/1 19/1/1
f 25/3/1 22/3/1 21/3/1
f 25/3/1 24/3/1 23/3/1
f 25/3/1 23/3/1 22/3/1
f 26/3/1 24/3/1 25/3/1
f 27/3/1 25/3/1 21/3/1
f 28/3/1 24/3/1 26/3/1
f 29/3/1 27/3/1 21/3/1
f 29/3/1 28/3/1 27/3/1
f 30/3/1 24/3/1 28/3/1
f 30/3/1 28/3/1 29/3/1
f 31/3/1 29/3/1 21/3/1
f 32/3/1 24/3/1 30/3/1
f 33/3/1 29/3/1 31/3/1
f 34/2/1 30/2/1 29/2/1
f 34/3/1 29/3/1 33/3/1
f 35/3/1 32/3/1 30/3/1
f 35/2/1 30/2/1 34/2/1
f 36/3/1 32/3/1 35/3/1
f 41/3/1 38/3/1 37/3/1
f 42/3/1 40/3/1 39/3/1
f 43/3/1 38/3/1 41/3/1
f 44/3/1 38/3/1 43/3/1
f 45/3/1 42/3/1 39/3/1
f 46/3/1 42/3/1 45/3/1
f 47/3/2 48/3/2 49/3/2
f 49/3/2 48/3/2 50/3/2
f 51/3/2 52/3/2 53/3/2
f 53/3/2 52/3/2 54/3/2
f 53/2/2 54/2/2 55/2/2
f 55/2/2 54/2/2 56/2/2
f 57/3/2 58/3/2 61/3/2
f 59/3/2 60/3/2 62/3/2
f 61/3/2 58/3/2 63/3/2
f 63/3/2 58/3/2 64/3/2
f 59/3/2 62/3/2 65/3/2
f 65/3/2 62/3/2 66/3/2
f 67/3/2 68/3/2 71/3/2
f 69/3/2 70/3/2 72/3/2
f 71/3/2 68/3/2 73/3/2
f 73/3/2 68/3/2 74/3/2
f 69/3/2 72/3/2 75/3/2
f 75/3/2 72/3/2 76/3/2
f 77/3/2 78/3/2 82/3/2
f 82/3/2 78/3/2 83/3/2
f 79/3/2 80/3/2 84/3/2
f 84/3/2 80/3/2 85/3/2
f 82/1/2 83/1/2 87/1/2
f 85/1/2 86/1/2 87/1/2
f 84/1/2 85/1/2 87/1/2
f 83/1/2 84/1/2 87/1/2
f 81/1/2 82/1/2 87/1/2
f 87/1/2 86/1/2 88/1/2
f 89/3/2 90/3/2 93/3/2
f 93/3/2 90/3/2 94/3/2
f 91/3/2 92/3/2 95/3/2
f 95/3/2 92/3/2 96/3/2
f 99/1/3 98/1/3 97/1/3
f 100/1/3 98/1/3 99/1/3
f 103/3/3 102/3/3 101/3/3
f 104/3/3 102/3/3 103/3/3
f 107/3/3 106/3/3 105/3/3
f 109/3/3 107/3/3 105/3/3
f 109/3/3 108/3/3 107/3/3
f 110/3/3 108/3/3 109/3/3
f 111/3/3 109/3/3 105/3/3
f 113/3/3 111/3/3 105/3/3
f 113/3/3 112/3/3 111/3/3
f 114/3/3 112/3/3 113/3/3
f 115/3/3 113/3/3 105/3/3
f 116/3/3 113/3/3 115/3/3
f 119/3/3 118/3/3 117/3/3
f 122/3/3 119/3/3 117/3/3
f 123/3/3 121/3/3 120/3/3
f 124/3/3 121/3/3 123/3/3
f 127/3/3 122/3/3 117/3/3
f 127/3/3 126/3/3 125/3/3
f 127/3/3 125/3/3 124/3/3
f 127/3/3 124/3/3 123/3/3
f 127/3/3 123/3/3 122/3/3
f 128/3/3 126/3/3 127/3/3
f 129/3/3 127/3/3 117/3/3
f 131/3/3 129/3/3 117/3/3
f 131/3/3 130/3/3 129/3/3
f 132/3/3 130/3/3 131/3/3
f 133/3/3 131/3/3 117/3/3
f 134/3/3 131/3/3 133/3/3
f 137/3/3 136/3/3 135/3/3
f 138/3/3 136/3/3 137/3/3
f 141/3/3 140/3/3 139/3/3
f 142/3/3 140/3/3 141/3/3
f 145/3/3 144/3/3 143/3/3
f 146/3/3 144/3/3 145/3/3
f 147/3/4 148/3/4 149/3/4
f 149/3/4 148/3/4 150/3/4
f 151/3/4 152/3/4 153/3/4
f 153/3/4 152/3/4 154/3/4
f 155/3/4 156/3/4 157/3/4
f 157/3/4 156/3/4 158/3/4
f 159/3/4 160/3/4 161/3/4
f 159/3/4 161/3/4 164/3/4
f 162/3/4 163/3/4 165/3/4
f 165/3/4 163/3/4 166/3/4
f 159/3/4 164/3/4 169/3/4
f 167/3/4 168/3/4 169/3/4
f 166/3/4 167/3/4 169/3/4
f 165/3/4 166/3/4 169/3/4
f 164/3/4 165/3/4 169/3/4
f 169/3/4 168/3/4 170/3/4
f 159/3/4 169/3/4 171/3/4
f 159/3/4 171/3/4 173/3/4
f 171/3/4 172/3/4 173/3/4
f 173/3/4 172/3/4 174/3/4
f 159/3/4 173/3/4 175/3/4
f 175/3/4 173/3/4 176/3/4
f 177/3/4 178/3/4 179/3/4
f 177/3/4 179/3/4 181/3/4
f 179/3/4 180/3/4 181/3/4
f 181/3/4 180/3/4 182/3/4
f 177/3/4 181/3/4 183/3/4
f 177/3/4 183/3/4 185/3/4
f 183/3/4 184/3/4 185/3/4
f 185/3/4 184/3/4 186/3/4
f 177/3/4 185/3/4 187/3/4
f 187/3/4 185/3/4 188/3/4
f 189/3/4 190/3/4 191/3/4
f 191/3/4 190/3/4 192/3/4
f 193/1/4 194/1/4 195/1/4
f 195/1/4 194/1/4 196/1/4
f 199/3/5 198/3/5 197/3/5
f 200/3/5 198/3/5 199/3/5
f 203/3/5 202/3/5 201/3/5
f 204/3/5 202/3/5 203/3/5
f 207/3/5 206/3/5 205/3/5
f 208/3/5 206/3/5 207/3/5
f 211/3/5 210/3/5 209/3/5
f 212/3/5 210/3/5 211/3/5
f 215/3/5 214/3/5 213/3/5
f 216/3/5 214/3/5 215/3/5
f 217/3/5 214/3/5 216/3/5
f 218/3/5 214/3/5 217/3/5
f 219/3/5 214/3/5 218/3/5
f 220/3/5 214/3/5 219/3/5
f 227/3/5 222/3/5 221/3/5
f 227/3/5 226/3/5 225/3/5
f 227/3/5 225/3/5 224/3/5
f 227/3/5 224/3/5 223/3/5
f 227/3/5 223/3/5 222/3/5
f 228/3/5 226/3/5 227/3/5
f 231/1/5 230/1/5 229/1/5
f 232/1/5 230/1/5 231/1/5
f 239/1/5 234/1/5 233/1/5
f 241/1/5 236/1/5 235/1/5
f 242/1/5 236/1/5 241/1/5
f 243/1/5 238/1/5 237/1/5
f 244/1/5 239/1/5 233/1/5
f 245/1/5 242/1/5 241/1/5
f 245/1/5 243/1/5 242/1/5
f 245/1/5 241/1/5 240/1/5
f 246/1/5 243/1/5 245/1/5
f 247/1/5 243/1/5 246/1/5
f 248/1/5 238/1/5 243/1/5
f 248/1/5 243/1/5 247/1/5
f 249/1/5 244/1/5 233/1/5
f 250/1/5 244/1/5 249/1/5
f 251/1/5 247/1/5 246/1/5
f 252/1/5 247/1/5 251/1/5
f 253/1/5 238/1/5 248/1/5
f 254/1/5 238/1/5 253/1/5
f 257/1/5 256/1/5 255/1/5
f 258/1/5 256/1/5 257/1/5
f 259/3/6 260/3/6 265/3/6
f 265/3/6 260/3/6 266/3/6
f 261/3/6 262/3/6 267/3/6
f 267/3/6 262/3/6 268/3/6
f 263/3/6 264/3/6 269/3/6
f 269/3/6 264/3/6 270/3/6
f 271/3/6 272/3/6 277/3/6
f 277/3/6 272/3/6 278/3/6
f 273/3/6 274/3/6 279/3/6
f 279/3/6 274/3/6 280/3/6
f 275/3/6 276/3/6 281/3/6
f 281/3/6 276/3/6 282/3/6
f 283/3/6 284/3/6 285/3/6
f 285/3/6 284/3/6 286/3/6
f 287/1/6 288/1/6 289/1/6
f 289/1/6 288/1/6 290/1/6
